<svg xmlns="http://www.w3.org/2000/svg" width="400" height="105.34" viewBox="0 0 400 105.34">
  <defs>
    <style>
      .cls-1 {
        fill: #10ae96;
      }

      .cls-2 {
        fill: #76b72a;
      }

      .cls-3 {
        fill: #575756;
      }
    </style>
  </defs>
  <title>logo</title>
  <g id="Layer_2" data-name="Layer 2">
    <g id="Layer_1-2" data-name="Layer 1">
      <g>
        <path class="cls-1" d="M94.81,31.6H77.33c-.78,3.55-2,7.95-3.59,12.82A221.65,221.65,0,0,1,62.67,71.94c-.29.6-.59,1.2-.91,1.8C55.53,85.63,45.23,96.88,37,104a10.39,10.39,0,0,0,5.13,1.35H63.21A10.56,10.56,0,0,0,73.74,94.81V73.74H94.81a10.56,10.56,0,0,0,10.53-10.53V42.14A10.57,10.57,0,0,0,94.81,31.6Z"/>
        <path class="cls-2" d="M5,47.25c0-2.08,12.38,3.06,26.61,3.14a45.64,45.64,0,0,0,14.65-2.14c11.19-3.72,18.4-10.87,23.21-16.65,1.71-2.05,3.11-3.92,4.28-5.41V10.53A10.56,10.56,0,0,0,63.21,0H42.14A10.57,10.57,0,0,0,31.6,10.53V31.6H10.53A10.57,10.57,0,0,0,0,42.14V63.21A10.56,10.56,0,0,0,10.53,73.74H27C18,57.86,5,49.94,5,47.25ZM46.25,20.31c5.09,0,9.22,4.71,9.22,10.53,0,.26,0,.51,0,.76-.35,5.46-4.32,9.77-9.19,9.77s-8.84-4.31-9.18-9.77c0-.25,0-.5,0-.76C37,25,41.16,20.31,46.25,20.31Z"/>
        <g>
          <path class="cls-3" d="M131.68,68.77a2.33,2.33,0,0,1,1.65,4,2.28,2.28,0,0,1-1.65.68Q120,73.44,120,61.78V45.44h-2.34a2.33,2.33,0,0,1-1.64-4,2.2,2.2,0,0,1,1.64-.68H120V29.11a2.28,2.28,0,0,1,.68-1.65,2.34,2.34,0,0,1,3.3,0,2.28,2.28,0,0,1,.68,1.65V40.78h4.7a2.24,2.24,0,0,1,1.65.68,2.33,2.33,0,0,1-1.65,4h-4.7V61.78Q124.68,68.77,131.68,68.77Z"/>
          <path class="cls-3" d="M164.73,65.51a2.34,2.34,0,0,1,2.34,2.33,2.34,2.34,0,0,1-.67,1.66,16.33,16.33,0,0,1-27-12.39,16.33,16.33,0,1,1,32.66,0,2.24,2.24,0,0,1-.68,1.65,2.28,2.28,0,0,1-1.65.68H144.29a11.72,11.72,0,0,0,11.46,9.33A11,11,0,0,0,163.28,66,2.29,2.29,0,0,1,164.73,65.51Zm2.48-10.73a11.7,11.7,0,0,0-22.92,0Z"/>
          <path class="cls-3" d="M178.82,43.11a2.28,2.28,0,0,1,.68-1.65,2.33,2.33,0,0,1,4,1.65v2.56a16,16,0,0,1,11.67-4.89,16.35,16.35,0,0,1,6.27,1.16,3.23,3.23,0,0,1,1,.61,2.37,2.37,0,0,1,.66,1.67,2.24,2.24,0,0,1-.68,1.65,2.28,2.28,0,0,1-1.65.68,2.31,2.31,0,0,1-1-.23,11.47,11.47,0,0,0-4.55-.88,11.66,11.66,0,0,0-11.67,11.67v14a2.24,2.24,0,0,1-.68,1.65,2.33,2.33,0,0,1-4-1.65Z"/>
          <path class="cls-3" d="M208.77,43.11a2.33,2.33,0,0,1,4-1.65,2.28,2.28,0,0,1,.68,1.65v2.56a16,16,0,0,1,11.67-4.89,16.43,16.43,0,0,1,6.27,1.16,3.07,3.07,0,0,1,1,.61,2.33,2.33,0,0,1,.67,1.67,2.32,2.32,0,0,1-2.33,2.33,2.31,2.31,0,0,1-1-.23,11.47,11.47,0,0,0-4.55-.88,11.64,11.64,0,0,0-11.67,11.67v14a2.33,2.33,0,0,1-4,1.65,2.24,2.24,0,0,1-.68-1.65Z"/>
          <path class="cls-3" d="M264.58,68.54a15.93,15.93,0,0,1-11.67,4.9,16.34,16.34,0,0,1-16.33-16.33,16.34,16.34,0,0,1,32.67,0v14a2.34,2.34,0,0,1-4.67,0Zm-11.67-23.1a11.64,11.64,0,0,0-11.66,11.67,11.67,11.67,0,1,0,19.92-8.26A11.28,11.28,0,0,0,252.91,45.44Z"/>
          <path class="cls-1" d="M325.08,70.38a3,3,0,0,1-.89,2.17,3,3,0,0,1-4.3,0,2.94,2.94,0,0,1-.88-2.17V53.78a6.65,6.65,0,0,0-.54-2.65,7.07,7.07,0,0,0-1.47-2.2,6.88,6.88,0,0,0-2.2-1.5,6.77,6.77,0,0,0-2.73-.56,6.53,6.53,0,0,0-2.68.56,7.1,7.1,0,0,0-2.2,1.48,6.65,6.65,0,0,0-1.49,2.19,6.72,6.72,0,0,0-.54,2.68v16.6a3,3,0,0,1-.89,2.17,2.89,2.89,0,0,1-2.14.89,3,3,0,0,1-3.07-3.06V53.78a6.56,6.56,0,0,0-.55-2.68A7.14,7.14,0,0,0,297,48.91a6.94,6.94,0,0,0-2.19-1.48,6.53,6.53,0,0,0-2.68-.56,6.68,6.68,0,0,0-2.68.54,7,7,0,0,0-2.2,1.49,6.8,6.8,0,0,0-1.49,2.2,6.72,6.72,0,0,0-.54,2.68v16.6a3,3,0,0,1-.89,2.17,3.07,3.07,0,0,1-4.32,0,3,3,0,0,1-.89-2.17V43.81a3,3,0,0,1,3-3,3,3,0,0,1,1.81.56,2.84,2.84,0,0,1,1.07,1.51,12.47,12.47,0,0,1,7.09-2.07,13.2,13.2,0,0,1,5.48,1.15,12.42,12.42,0,0,1,4.5,3.48,12.69,12.69,0,0,1,9.94-4.63,12.44,12.44,0,0,1,5,1,13.1,13.1,0,0,1,4.14,2.8,13.33,13.33,0,0,1,2.8,4.14,12.48,12.48,0,0,1,1,5Z"/>
          <path class="cls-1" d="M355.23,64.25a2.94,2.94,0,0,1,3,3,3,3,0,0,1-.88,2.19,16.34,16.34,0,0,1-27-12.37,16.34,16.34,0,0,1,27.89-11.55,16,16,0,0,1,3.59,5.26,16.5,16.5,0,0,1,1.19,6.29,2.9,2.9,0,0,1-.89,2.17,3,3,0,0,1-2.17.86h-23.1a9.69,9.69,0,0,0,1.46,2.93,10,10,0,0,0,2.26,2.28,10.32,10.32,0,0,0,2.86,1.47,10.1,10.1,0,0,0,3.25.52,10.25,10.25,0,0,0,3.53-.58,9.57,9.57,0,0,0,3-1.75A3.25,3.25,0,0,1,355.23,64.25Zm1.32-10.18a9.75,9.75,0,0,0-1.48-2.93,10.39,10.39,0,0,0-5.13-3.74,10,10,0,0,0-3.22-.53,10.18,10.18,0,0,0-3.24.53,10.79,10.79,0,0,0-2.89,1.47,10.18,10.18,0,0,0-2.27,2.27,9.62,9.62,0,0,0-1.43,2.93Z"/>
          <path class="cls-1" d="M383.67,40.78a15.78,15.78,0,0,1,10.23,3.58V29.81a2.94,2.94,0,0,1,3-3,3,3,0,0,1,2.17.86,2.89,2.89,0,0,1,.89,2.17v27.3a15.61,15.61,0,0,1-4.78,11.55,16.33,16.33,0,0,1-27.88-11.55,16.32,16.32,0,0,1,16.33-16.33ZM393.9,57.11a9.72,9.72,0,0,0-.8-4,10.53,10.53,0,0,0-2.18-3.26,10.39,10.39,0,0,0-3.26-2.21,9.73,9.73,0,0,0-4-.82,9.88,9.88,0,0,0-4,.82,10.44,10.44,0,0,0-3.24,2.2,10.58,10.58,0,0,0-2.17,3.25,10.25,10.25,0,0,0,0,7.94,10.7,10.7,0,0,0,2.17,3.25,10.44,10.44,0,0,0,3.24,2.2,10,10,0,0,0,4,.81,9.88,9.88,0,0,0,4-.81,10.25,10.25,0,0,0,3.26-2.22,10.49,10.49,0,0,0,2.18-3.25A9.72,9.72,0,0,0,393.9,57.11Z"/>
        </g>
      </g>
    </g>
  </g>
</svg>
