<?xml version="1.0" encoding="utf-8"?>
<!-- Generator: Adobe Illustrator 25.0.0, SVG Export Plug-In . SVG Version: 6.00 Build 0)  -->
<svg version="1.1" xmlns="http://www.w3.org/2000/svg" xmlns:xlink="http://www.w3.org/1999/xlink" x="0px" y="0px"
	 viewBox="0 0 1400 980" style="enable-background:new 0 0 1400 980;" xml:space="preserve">
<style type="text/css">
	.st0{fill:#B4D2EF;}
	.st1{opacity:0.47;}
	.st2{fill:#00736C;}
	.st3{fill:#4D3510;}
	.st4{fill:#5D411C;}
	.st5{fill:#49310C;}
	.st6{fill:#523814;}
	.st7{fill:#D1D3D4;}
	.st8{fill:#FFFFFF;}
	.st9{clip-path:url(#XMLID_266_);}
	.st10{fill:#C21424;}
	.st11{fill:#920412;}
	.st12{fill:#E0E1E2;}
	.st13{fill:#D5D7D8;}
	.st14{fill:#C0C2C4;}
	.st15{fill:#8EC4DD;}
	.st16{fill:#BCE6FB;}
	.st17{fill:#E9B2CA;}
	.st18{fill:#FBD7E7;}
	.st19{fill:#B9451C;}
	.st20{fill:#F15A29;}
	.st21{fill:#E5D0AF;}
	.st22{fill:#F2ECBF;}
	.st23{fill:#F1F2F2;}
	.st24{fill:#FFDFA6;}
	.st25{fill:#F0C28D;}
	.st26{fill:#E6E7E8;}
	.st27{fill:#5A5B5D;}
	.st28{fill:#BCBEC0;}
	.st29{fill:#74A734;}
	.st30{fill:#8DC63F;}
	.st31{fill:#A5A7AA;}
	.st32{fill:#E2E3E4;}
	.st33{fill:#A7A9AC;}
	.st34{fill:#CBCCCE;}
	.st35{fill:#91ACC0;}
	.st36{fill:#E3A064;}
	.st37{fill:#FCBA7C;}
	.st38{fill:#EFEFF0;}
	.st39{fill:#5A9EBB;}
	.st40{fill:#7F5C2F;}
	.st41{fill:#77BBD8;}
	.st42{fill:#414042;}
	.st43{fill:#60A9C6;}
	.st44{fill:#FDC07D;}
	.st45{fill:#4B361B;}
	.st46{fill:#003D61;}
	.st47{fill:#003050;}
	.st48{fill:none;stroke:#D1D3D4;stroke-width:2;stroke-miterlimit:10;}
	.st49{fill:none;stroke:#D1D3D4;stroke-miterlimit:10;}
	.st50{fill:#A22919;}
	.st51{fill:#D58958;}
	.st52{fill:#4A4B4C;}
	.st53{fill:#3D3D3E;}
	.st54{fill:#383839;}
	.st55{fill:#2E2E2F;}
	.st56{fill:#696A6D;}
	.st57{fill:#CFD1D2;}
	.st58{fill:none;stroke:#000000;stroke-width:2;stroke-miterlimit:10;}
</style>
<g id="Layer_2">
	<rect id="XMLID_9_" class="st0" width="1400" height="980"/>
</g>
<g id="Layer_3">
	<g id="XMLID_248_" class="st1">
		<circle id="XMLID_245_" class="st2" cx="788.59" cy="465.59" r="270.79"/>
		<g id="XMLID_235_">
			<g id="XMLID_69_">
				<path id="XMLID_89_" class="st3" d="M734.57,335.03v115.38c0,8.42,2.2,15.25,4.91,15.25h-20.81c-8.41,0-15.25-6.83-15.25-15.25
					V335.03c0-5.06,1-10.01,2.91-14.59c1.9-4.58,4.69-8.79,8.26-12.37c7.15-7.15,11.17-16.85,11.17-26.96V263.4h16v17.71
					c0,10.11-1.3,19.81-3.6,26.96c-1.15,3.58-2.06,7.79-2.67,12.37C734.89,325.02,734.57,329.98,734.57,335.03z"/>
				<path id="XMLID_91_" class="st4" d="M795.36,335.03v115.38c0,8.42-6.83,15.25-15.25,15.25h-40.63c-2.72,0-4.91-6.83-4.91-15.25
					V335.03c0-5.06,0.33-10.01,0.94-14.59c0.61-4.58,1.51-8.79,2.67-12.37c2.31-7.15,3.6-16.85,3.6-26.96V263.4h31.25v17.71
					c0,5.06,1,10.01,2.9,14.59c1.91,4.59,4.7,8.8,8.26,12.37C791.34,315.22,795.36,324.92,795.36,335.03z"/>
				<path id="XMLID_97_" class="st5" d="M776.34,280.15c0,1.3-0.53,2.48-1.39,3.34c-0.85,0.85-2.04,1.38-3.34,1.38h-44.44
					c-2.61,0-4.72-2.11-4.72-4.72c0-1.3,0.53-2.49,1.38-3.34c0.86-0.85,2.04-1.39,3.34-1.39h44.44
					C774.23,275.42,776.34,277.54,776.34,280.15z"/>
				<path id="XMLID_93_" class="st6" d="M776.34,280.15c0,1.3-0.53,2.48-1.39,3.34c-0.85,0.85-2.04,1.38-3.34,1.38h-28.87
					c-2.61,0-4.72-2.11-4.72-4.72c0-1.3,0.53-2.49,1.39-3.34c0.85-0.85,2.03-1.39,3.33-1.39h28.87
					C774.23,275.42,776.34,277.54,776.34,280.15z"/>
				<path id="XMLID_96_" class="st7" d="M778.39,245.86v27.37h-58v-27.37c0-3.35,3.12-6.07,6.96-6.07h44.08
					C775.27,239.79,778.39,242.51,778.39,245.86z"/>
				<rect id="XMLID_68_" x="703.43" y="345.66" class="st8" width="91.93" height="73.17"/>
				<rect id="XMLID_76_" x="703.43" y="345.66" class="st8" width="91.93" height="73.17"/>
				<g id="XMLID_79_">
					<defs>
						<rect id="XMLID_77_" x="703.43" y="345.66" width="91.93" height="73.17"/>
					</defs>
					<clipPath id="XMLID_266_">
						<use xlink:href="#XMLID_77_"  style="overflow:visible;"/>
					</clipPath>
					<g id="XMLID_353_" class="st9">
						<circle id="XMLID_360_" class="st10" cx="788.26" cy="382.77" r="24.03"/>
						<polygon id="XMLID_359_" class="st8" points="792.49,378.53 792.49,370.05 784.02,370.05 784.02,378.53 775.54,378.53 
							775.54,387.01 784.02,387.01 784.02,395.49 792.49,395.49 792.49,387.01 800.97,387.01 800.97,378.53 						"/>
					</g>
				</g>
				<rect id="XMLID_75_" x="703.43" y="345.66" class="st7" width="31.14" height="73.17"/>
				<path id="XMLID_87_" class="st8" d="M778.39,245.86v27.37h-35.06v-27.37c0-3.35,3.04-6.07,6.78-6.07h21.5
					C775.35,239.79,778.39,242.51,778.39,245.86z"/>
			</g>
			<g id="XMLID_85_">
				<path id="XMLID_129_" class="st11" d="M877.71,307.86c-0.01,5.79-4.72,10.48-10.51,10.48c-0.01,0-0.01,0-0.02,0l-21.01-0.05
					l0.02-7.03l21,0.02h0.05C872.95,311.29,877.61,309.75,877.71,307.86z"/>
				<path id="XMLID_133_" class="st10" d="M877.71,307.79c0,0.01,0,0.01,0,0.02v0.05c-0.1,1.89-4.76,3.42-10.48,3.42h-0.05l-21-0.02
					l0.01-3.48v-3.49l0.02-7.03l21.01,0.04C873.02,297.34,877.7,302.02,877.71,307.79z"/>
				<path id="XMLID_109_" class="st12" d="M846.19,311.27l-0.02,7.03l-21.02-0.05c-5.77-0.01-10.45-4.68-10.48-10.45
					c0.03,1.91,4.7,3.46,10.48,3.46l21.02,0.02H846.19z"/>
				<path id="XMLID_130_" class="st8" d="M846.22,297.28l-0.02,7.03v3.49l-0.01,3.48h-0.02l-21.02-0.02
					c-5.77,0-10.45-1.55-10.48-3.46c0-0.01,0-0.01,0-0.02v-0.01c0-0.01,0-0.01,0-0.02v-0.04c0.01-5.81,4.72-10.49,10.53-10.48
					L846.22,297.28z"/>
			</g>
			<g id="XMLID_181_">
				<path id="XMLID_84_" class="st7" d="M673.39,337.62c-1.89-5.79-6.56-10.55-12.88-12.27c-9.69-2.63-19.66,2.83-22.73,12.27h-0.93
					v5.82h0c0,0.87,0.06,1.74,0.19,2.59c1,7.21,6.19,13.46,13.65,15.5c9.98,2.71,20.28-3.19,22.99-13.17
					c0.2-0.77,0.37-1.55,0.47-2.32c0.13-0.86,0.19-1.73,0.19-2.59h0v-5.82H673.39z"/>
				<path id="XMLID_112_" class="st8" d="M674.15,340.21c-0.1,0.77-0.26,1.55-0.47,2.32c-2.71,9.98-13.01,15.89-22.99,13.17
					c-7.46-2.03-12.65-8.29-13.65-15.5c-0.25-1.69-0.26-3.43,0-5.17c0.1-0.77,0.26-1.55,0.47-2.32c2.71-9.99,13.01-15.89,23-13.17
					c7.46,2.03,12.64,8.29,13.64,15.5C674.4,336.72,674.41,338.46,674.15,340.21z"/>
				<path id="XMLID_99_" class="st7" d="M674.15,340.21h-37.11c-0.25-1.69-0.26-3.43,0-5.17h37.11
					C674.4,336.72,674.41,338.46,674.15,340.21z"/>
			</g>
			<g id="XMLID_258_">
				<path id="XMLID_261_" class="st7" d="M979.84,516.28c2.52-5.55,2.3-12.21-1.19-17.75c-5.35-8.49-16.39-11.21-25.04-6.34
					l-0.68-0.63l-3.93,4.28l0,0c-0.59,0.64-1.13,1.32-1.61,2.03c-4.14,5.99-4.55,14.1-0.43,20.65c5.52,8.75,17.1,11.36,25.85,5.85
					c0.67-0.43,1.32-0.89,1.92-1.39c0.68-0.55,1.31-1.15,1.89-1.78l0,0l3.93-4.28L979.84,516.28z"/>
				<path id="XMLID_260_" class="st8" d="M978.64,518.7c-0.6,0.5-1.24,0.96-1.92,1.39c-8.75,5.52-20.33,2.9-25.85-5.85
					c-4.12-6.55-3.71-14.66,0.43-20.65c0.96-1.41,2.13-2.7,3.5-3.81c0.6-0.5,1.24-0.96,1.92-1.39c8.76-5.52,20.33-2.9,25.85,5.85
					c4.13,6.54,3.7,14.65-0.43,20.64C981.19,516.29,980.01,517.58,978.64,518.7z"/>
				<path id="XMLID_259_" class="st7" d="M978.64,518.7l-27.34-25.1c0.96-1.41,2.13-2.7,3.5-3.81l27.34,25.1
					C981.19,516.29,980.01,517.58,978.64,518.7z"/>
			</g>
			<g id="XMLID_236_">
				<path id="XMLID_239_" class="st7" d="M771.95,662.89c-3.87-3.19-9.22-4.44-14.37-2.84c-7.89,2.45-12.42,10.64-10.39,18.56
					l-0.64,0.41l2.57,4.04l0,0c0.39,0.61,0.81,1.18,1.27,1.72c3.88,4.57,10.24,6.63,16.33,4.75c8.14-2.52,12.69-11.17,10.17-19.31
					c-0.2-0.63-0.43-1.24-0.7-1.82c-0.29-0.66-0.63-1.29-1.01-1.88l0,0l-2.57-4.04L771.95,662.89z"/>
				<path id="XMLID_238_" class="st8" d="M773.62,664.35c0.27,0.58,0.5,1.19,0.7,1.82c2.52,8.14-2.03,16.79-10.17,19.31
					c-6.09,1.88-12.45-0.18-16.33-4.75c-0.92-1.06-1.69-2.27-2.28-3.6c-0.27-0.58-0.5-1.19-0.7-1.82
					c-2.52-8.14,2.03-16.79,10.18-19.31c6.08-1.89,12.44,0.18,16.32,4.75C772.25,661.82,773.03,663.02,773.62,664.35z"/>
				<path id="XMLID_237_" class="st7" d="M773.62,664.35l-25.8,16.38c-0.92-1.06-1.69-2.27-2.28-3.6l25.8-16.38
					C772.25,661.82,773.03,663.02,773.62,664.35z"/>
			</g>
			<g id="XMLID_234_">
				<path id="XMLID_232_" class="st13" d="M986.82,439.77H830.18c-8.12,0-14.71-6.58-14.71-14.71v-50.42
					c0-8.12,6.58-14.71,14.71-14.71h156.65c8.12,0,14.71,6.58,14.71,14.71v50.42C1001.53,433.19,994.95,439.77,986.82,439.77z"/>
				<g id="XMLID_233_">
					<g id="XMLID_231_">
						<path id="XMLID_273_" class="st14" d="M851.35,384.14c-0.58-4.16-3.57-7.78-7.88-8.95c-5.77-1.57-11.72,1.84-13.29,7.61
							c-0.12,0.45-0.21,0.89-0.27,1.34c-0.07,0.5-0.11,1-0.11,1.49h0v3.36h0c0,0.5,0.04,1,0.11,1.49c0.58,4.16,3.57,7.78,7.88,8.95
							c5.77,1.57,11.71-1.84,13.28-7.61c0.12-0.45,0.21-0.89,0.27-1.34c0.07-0.5,0.11-1,0.11-1.49h0v-3.36h0
							C851.46,385.13,851.42,384.63,851.35,384.14z"/>
						<path id="XMLID_274_" class="st14" d="M885.09,384.14c-0.58-4.16-3.57-7.78-7.88-8.95c-5.77-1.57-11.72,1.84-13.29,7.61
							c-0.12,0.45-0.21,0.89-0.27,1.34c-0.07,0.5-0.11,1-0.11,1.49h0v3.36h0c0,0.5,0.04,1,0.11,1.49c0.58,4.16,3.57,7.78,7.88,8.95
							c5.77,1.57,11.71-1.84,13.28-7.61c0.12-0.45,0.21-0.89,0.27-1.34c0.07-0.5,0.11-1,0.11-1.49h0v-3.36h0
							C885.19,385.13,885.16,384.63,885.09,384.14z"/>
						<path id="XMLID_275_" class="st14" d="M918.82,384.14c-0.58-4.16-3.57-7.78-7.88-8.95c-5.77-1.57-11.72,1.84-13.29,7.61
							c-0.12,0.45-0.21,0.89-0.27,1.34c-0.07,0.5-0.11,1-0.11,1.49h0v3.36h0c0,0.5,0.04,1,0.11,1.49c0.58,4.16,3.57,7.78,7.88,8.95
							c5.77,1.57,11.71-1.84,13.28-7.61c0.12-0.45,0.21-0.89,0.27-1.34c0.07-0.5,0.11-1,0.11-1.49h0v-3.36h0
							C918.93,385.13,918.9,384.63,918.82,384.14z"/>
						<path id="XMLID_276_" class="st14" d="M952.56,384.14c-0.58-4.16-3.57-7.78-7.88-8.95c-5.77-1.57-11.72,1.84-13.29,7.61
							c-0.12,0.45-0.21,0.89-0.27,1.34c-0.07,0.5-0.11,1-0.11,1.49h0v3.36h0c0,0.5,0.04,1,0.11,1.49c0.58,4.16,3.57,7.78,7.88,8.95
							c5.77,1.57,11.71-1.84,13.28-7.61c0.12-0.45,0.21-0.89,0.27-1.34c0.07-0.5,0.11-1,0.11-1.49h0v-3.36h0
							C952.67,385.13,952.64,384.63,952.56,384.14z"/>
						<path id="XMLID_277_" class="st14" d="M986.3,384.14c-0.58-4.16-3.57-7.78-7.88-8.95c-5.77-1.57-11.72,1.84-13.29,7.61
							c-0.12,0.45-0.21,0.89-0.27,1.34c-0.07,0.5-0.11,1-0.11,1.49h0v3.36h0c0,0.5,0.04,1,0.11,1.49c0.58,4.16,3.57,7.78,7.88,8.95
							c5.77,1.57,11.71-1.84,13.28-7.61c0.12-0.45,0.21-0.89,0.27-1.34c0.07-0.5,0.11-1,0.11-1.49h0v-3.36h0
							C986.41,385.13,986.37,384.63,986.3,384.14z"/>
						<path id="XMLID_278_" class="st14" d="M851.35,414.64c-0.58-4.16-3.57-7.78-7.88-8.95c-5.77-1.57-11.72,1.84-13.29,7.61
							c-0.12,0.45-0.21,0.89-0.27,1.34c-0.07,0.5-0.11,1-0.11,1.49h0v3.36h0c0,0.5,0.04,1,0.11,1.49c0.58,4.16,3.57,7.78,7.88,8.95
							c5.77,1.57,11.71-1.84,13.28-7.61c0.12-0.45,0.21-0.89,0.27-1.34c0.07-0.5,0.11-1,0.11-1.49h0v-3.36h0
							C851.46,415.63,851.42,415.13,851.35,414.64z"/>
						<path id="XMLID_279_" class="st14" d="M885.09,414.64c-0.58-4.16-3.57-7.78-7.88-8.95c-5.77-1.57-11.72,1.84-13.29,7.61
							c-0.12,0.45-0.21,0.89-0.27,1.34c-0.07,0.5-0.11,1-0.11,1.49h0v3.36h0c0,0.5,0.04,1,0.11,1.49c0.58,4.16,3.57,7.78,7.88,8.95
							c5.77,1.57,11.71-1.84,13.28-7.61c0.12-0.45,0.21-0.89,0.27-1.34c0.07-0.5,0.11-1,0.11-1.49h0v-3.36h0
							C885.19,415.63,885.16,415.13,885.09,414.64z"/>
						<path id="XMLID_280_" class="st14" d="M918.82,414.64c-0.58-4.16-3.57-7.78-7.88-8.95c-5.77-1.57-11.72,1.84-13.29,7.61
							c-0.12,0.45-0.21,0.89-0.27,1.34c-0.07,0.5-0.11,1-0.11,1.49h0v3.36h0c0,0.5,0.04,1,0.11,1.49c0.58,4.16,3.57,7.78,7.88,8.95
							c5.77,1.57,11.71-1.84,13.28-7.61c0.12-0.45,0.21-0.89,0.27-1.34c0.07-0.5,0.11-1,0.11-1.49h0v-3.36h0
							C918.93,415.63,918.9,415.13,918.82,414.64z"/>
						<path id="XMLID_281_" class="st14" d="M952.56,414.64c-0.58-4.16-3.57-7.78-7.88-8.95c-5.77-1.57-11.72,1.84-13.29,7.61
							c-0.12,0.45-0.21,0.89-0.27,1.34c-0.07,0.5-0.11,1-0.11,1.49h0v3.36h0c0,0.5,0.04,1,0.11,1.49c0.58,4.16,3.57,7.78,7.88,8.95
							c5.77,1.57,11.71-1.84,13.28-7.61c0.12-0.45,0.21-0.89,0.27-1.34c0.07-0.5,0.11-1,0.11-1.49h0v-3.36h0
							C952.67,415.63,952.64,415.13,952.56,414.64z"/>
						<path id="XMLID_282_" class="st14" d="M986.3,414.64c-0.58-4.16-3.57-7.78-7.88-8.95c-5.77-1.57-11.72,1.84-13.29,7.61
							c-0.12,0.45-0.21,0.89-0.27,1.34c-0.07,0.5-0.11,1-0.11,1.49h0v3.36h0c0,0.5,0.04,1,0.11,1.49c0.58,4.16,3.57,7.78,7.88,8.95
							c5.77,1.57,11.71-1.84,13.28-7.61c0.12-0.45,0.21-0.89,0.27-1.34c0.07-0.5,0.11-1,0.11-1.49h0v-3.36h0
							C986.41,415.63,986.37,415.13,986.3,414.64z"/>
					</g>
					<g id="XMLID_182_">
						<g id="XMLID_183_">
							<path id="XMLID_188_" class="st15" d="M850.91,381.78c-1.09-3.35-3.79-6.09-7.44-7.09c-5.59-1.52-11.35,1.63-13.13,7.09
								h-0.54v3.36h0c0,0.5,0.04,1,0.11,1.49c0.58,4.16,3.57,7.78,7.88,8.95c5.77,1.57,11.71-1.84,13.28-7.61
								c0.12-0.45,0.21-0.89,0.27-1.34c0.07-0.5,0.11-1,0.11-1.49h0v-3.36H850.91z"/>
							<path id="XMLID_186_" class="st16" d="M851.35,383.28c-0.06,0.45-0.15,0.89-0.27,1.34c-1.57,5.77-7.52,9.18-13.28,7.61
								c-4.31-1.17-7.3-4.79-7.88-8.95c-0.14-0.97-0.15-1.98,0-2.99c0.06-0.45,0.15-0.89,0.27-1.34c1.57-5.77,7.52-9.18,13.29-7.61
								c4.31,1.17,7.3,4.79,7.88,8.95C851.49,381.26,851.49,382.27,851.35,383.28z"/>
							<path id="XMLID_184_" class="st15" d="M851.35,383.28h-21.43c-0.14-0.97-0.15-1.98,0-2.99h21.43
								C851.49,381.26,851.49,382.27,851.35,383.28z"/>
						</g>
						<g id="XMLID_189_">
							<path id="XMLID_192_" class="st15" d="M884.65,381.78c-1.09-3.35-3.79-6.09-7.44-7.09c-5.59-1.52-11.35,1.63-13.13,7.09
								h-0.54v3.36h0c0,0.5,0.04,1,0.11,1.49c0.58,4.16,3.57,7.78,7.88,8.95c5.77,1.57,11.71-1.84,13.28-7.61
								c0.12-0.45,0.21-0.89,0.27-1.34c0.07-0.5,0.11-1,0.11-1.49h0v-3.36H884.65z"/>
							<path id="XMLID_191_" class="st16" d="M885.09,383.28c-0.06,0.45-0.15,0.89-0.27,1.34c-1.57,5.77-7.52,9.18-13.28,7.61
								c-4.31-1.17-7.3-4.79-7.88-8.95c-0.14-0.97-0.15-1.98,0-2.99c0.06-0.45,0.15-0.89,0.27-1.34c1.57-5.77,7.52-9.18,13.29-7.61
								c4.31,1.17,7.3,4.79,7.88,8.95C885.23,381.26,885.23,382.27,885.09,383.28z"/>
							<path id="XMLID_190_" class="st15" d="M885.09,383.28h-21.43c-0.14-0.97-0.15-1.98,0-2.99h21.43
								C885.23,381.26,885.23,382.27,885.09,383.28z"/>
						</g>
						<g id="XMLID_193_">
							<path id="XMLID_196_" class="st15" d="M918.39,381.78c-1.09-3.35-3.79-6.09-7.44-7.09c-5.59-1.52-11.35,1.63-13.13,7.09
								h-0.54v3.36h0c0,0.5,0.04,1,0.11,1.49c0.58,4.16,3.57,7.78,7.88,8.95c5.77,1.57,11.71-1.84,13.28-7.61
								c0.12-0.45,0.21-0.89,0.27-1.34c0.07-0.5,0.11-1,0.11-1.49h0v-3.36H918.39z"/>
							<path id="XMLID_195_" class="st16" d="M918.82,383.28c-0.06,0.45-0.15,0.89-0.27,1.34c-1.57,5.77-7.51,9.18-13.28,7.61
								c-4.31-1.17-7.3-4.79-7.88-8.95c-0.14-0.97-0.15-1.98,0-2.99c0.06-0.45,0.15-0.89,0.27-1.34c1.57-5.77,7.52-9.18,13.29-7.61
								c4.31,1.17,7.3,4.79,7.88,8.95C918.97,381.26,918.97,382.27,918.82,383.28z"/>
							<path id="XMLID_194_" class="st15" d="M918.82,383.28h-21.43c-0.14-0.97-0.15-1.98,0-2.99h21.43
								C918.97,381.26,918.97,382.27,918.82,383.28z"/>
						</g>
						<g id="XMLID_197_">
							<path id="XMLID_200_" class="st15" d="M952.12,381.78c-1.09-3.35-3.79-6.09-7.44-7.09c-5.59-1.52-11.35,1.63-13.13,7.09
								h-0.54v3.36h0c0,0.5,0.04,1,0.11,1.49c0.58,4.16,3.57,7.78,7.88,8.95c5.77,1.57,11.71-1.84,13.28-7.61
								c0.12-0.45,0.21-0.89,0.27-1.34c0.07-0.5,0.11-1,0.11-1.49h0v-3.36H952.12z"/>
							<path id="XMLID_199_" class="st16" d="M952.56,383.28c-0.06,0.45-0.15,0.89-0.27,1.34c-1.57,5.77-7.52,9.18-13.28,7.61
								c-4.31-1.17-7.3-4.79-7.88-8.95c-0.14-0.97-0.15-1.98,0-2.99c0.06-0.45,0.15-0.89,0.27-1.34c1.57-5.77,7.52-9.18,13.29-7.61
								c4.31,1.17,7.3,4.79,7.88,8.95C952.71,381.26,952.71,382.27,952.56,383.28z"/>
							<path id="XMLID_198_" class="st15" d="M952.56,383.28h-21.43c-0.14-0.97-0.15-1.98,0-2.99h21.43
								C952.71,381.26,952.71,382.27,952.56,383.28z"/>
						</g>
						<g id="XMLID_201_">
							<path id="XMLID_204_" class="st15" d="M985.86,381.78c-1.09-3.35-3.79-6.09-7.44-7.09c-5.59-1.52-11.35,1.63-13.13,7.09
								h-0.54v3.36h0c0,0.5,0.04,1,0.11,1.49c0.58,4.16,3.57,7.78,7.88,8.95c5.77,1.57,11.71-1.84,13.28-7.61
								c0.12-0.45,0.21-0.89,0.27-1.34c0.07-0.5,0.11-1,0.11-1.49h0v-3.36H985.86z"/>
							<path id="XMLID_203_" class="st16" d="M986.3,383.28c-0.06,0.45-0.15,0.89-0.27,1.34c-1.57,5.77-7.51,9.18-13.28,7.61
								c-4.31-1.17-7.3-4.79-7.88-8.95c-0.14-0.97-0.15-1.98,0-2.99c0.06-0.45,0.15-0.89,0.27-1.34c1.57-5.77,7.52-9.18,13.29-7.61
								c4.31,1.17,7.3,4.79,7.88,8.95C986.44,381.26,986.45,382.27,986.3,383.28z"/>
							<path id="XMLID_202_" class="st15" d="M986.3,383.28h-21.43c-0.14-0.97-0.15-1.98,0-2.99h21.43
								C986.44,381.26,986.45,382.27,986.3,383.28z"/>
						</g>
						<g id="XMLID_227_">
							<path id="XMLID_230_" class="st15" d="M850.91,412.29c-1.09-3.35-3.79-6.09-7.44-7.09c-5.59-1.52-11.35,1.63-13.13,7.09
								h-0.54v3.36h0c0,0.5,0.04,1,0.11,1.49c0.58,4.16,3.57,7.78,7.88,8.95c5.77,1.57,11.71-1.84,13.28-7.61
								c0.12-0.45,0.21-0.89,0.27-1.34c0.07-0.5,0.11-1,0.11-1.49h0v-3.36H850.91z"/>
							<path id="XMLID_229_" class="st16" d="M851.35,413.78c-0.06,0.45-0.15,0.89-0.27,1.34c-1.57,5.77-7.52,9.18-13.28,7.61
								c-4.31-1.17-7.3-4.79-7.88-8.95c-0.14-0.97-0.15-1.98,0-2.99c0.06-0.45,0.15-0.89,0.27-1.34c1.57-5.77,7.52-9.18,13.29-7.61
								c4.31,1.17,7.3,4.79,7.88,8.95C851.49,411.77,851.49,412.78,851.35,413.78z"/>
							<path id="XMLID_228_" class="st15" d="M851.35,413.78h-21.43c-0.14-0.97-0.15-1.98,0-2.99h21.43
								C851.49,411.77,851.49,412.78,851.35,413.78z"/>
						</g>
						<g id="XMLID_223_">
							<path id="XMLID_226_" class="st15" d="M884.65,412.29c-1.09-3.35-3.79-6.09-7.44-7.09c-5.59-1.52-11.35,1.63-13.13,7.09
								h-0.54v3.36h0c0,0.5,0.04,1,0.11,1.49c0.58,4.16,3.57,7.78,7.88,8.95c5.77,1.57,11.71-1.84,13.28-7.61
								c0.12-0.45,0.21-0.89,0.27-1.34c0.07-0.5,0.11-1,0.11-1.49h0v-3.36H884.65z"/>
							<path id="XMLID_225_" class="st16" d="M885.09,413.78c-0.06,0.45-0.15,0.89-0.27,1.34c-1.57,5.77-7.52,9.18-13.28,7.61
								c-4.31-1.17-7.3-4.79-7.88-8.95c-0.14-0.97-0.15-1.98,0-2.99c0.06-0.45,0.15-0.89,0.27-1.34c1.57-5.77,7.52-9.18,13.29-7.61
								c4.31,1.17,7.3,4.79,7.88,8.95C885.23,411.77,885.23,412.78,885.09,413.78z"/>
							<path id="XMLID_224_" class="st15" d="M885.09,413.78h-21.43c-0.14-0.97-0.15-1.98,0-2.99h21.43
								C885.23,411.77,885.23,412.78,885.09,413.78z"/>
						</g>
						<g id="XMLID_219_">
							<path id="XMLID_222_" class="st15" d="M918.39,412.29c-1.09-3.35-3.79-6.09-7.44-7.09c-5.59-1.52-11.35,1.63-13.13,7.09
								h-0.54v3.36h0c0,0.5,0.04,1,0.11,1.49c0.58,4.16,3.57,7.78,7.88,8.95c5.77,1.57,11.71-1.84,13.28-7.61
								c0.12-0.45,0.21-0.89,0.27-1.34c0.07-0.5,0.11-1,0.11-1.49h0v-3.36H918.39z"/>
							<path id="XMLID_221_" class="st16" d="M918.82,413.78c-0.06,0.45-0.15,0.89-0.27,1.34c-1.57,5.77-7.51,9.18-13.28,7.61
								c-4.31-1.17-7.3-4.79-7.88-8.95c-0.14-0.97-0.15-1.98,0-2.99c0.06-0.45,0.15-0.89,0.27-1.34c1.57-5.77,7.52-9.18,13.29-7.61
								c4.31,1.17,7.3,4.79,7.88,8.95C918.97,411.77,918.97,412.78,918.82,413.78z"/>
							<path id="XMLID_220_" class="st15" d="M918.82,413.78h-21.43c-0.14-0.97-0.15-1.98,0-2.99h21.43
								C918.97,411.77,918.97,412.78,918.82,413.78z"/>
						</g>
						<g id="XMLID_215_">
							<path id="XMLID_218_" class="st15" d="M952.12,412.29c-1.09-3.35-3.79-6.09-7.44-7.09c-5.59-1.52-11.35,1.63-13.13,7.09
								h-0.54v3.36h0c0,0.5,0.04,1,0.11,1.49c0.58,4.16,3.57,7.78,7.88,8.95c5.77,1.57,11.71-1.84,13.28-7.61
								c0.12-0.45,0.21-0.89,0.27-1.34c0.07-0.5,0.11-1,0.11-1.49h0v-3.36H952.12z"/>
							<path id="XMLID_217_" class="st16" d="M952.56,413.78c-0.06,0.45-0.15,0.89-0.27,1.34c-1.57,5.77-7.52,9.18-13.28,7.61
								c-4.31-1.17-7.3-4.79-7.88-8.95c-0.14-0.97-0.15-1.98,0-2.99c0.06-0.45,0.15-0.89,0.27-1.34c1.57-5.77,7.52-9.18,13.29-7.61
								c4.31,1.17,7.3,4.79,7.88,8.95C952.71,411.77,952.71,412.78,952.56,413.78z"/>
							<path id="XMLID_216_" class="st15" d="M952.56,413.78h-21.43c-0.14-0.97-0.15-1.98,0-2.99h21.43
								C952.71,411.77,952.71,412.78,952.56,413.78z"/>
						</g>
						<g id="XMLID_205_">
							<path id="XMLID_208_" class="st15" d="M985.86,412.29c-1.09-3.35-3.79-6.09-7.44-7.09c-5.59-1.52-11.35,1.63-13.13,7.09
								h-0.54v3.36h0c0,0.5,0.04,1,0.11,1.49c0.58,4.16,3.57,7.78,7.88,8.95c5.77,1.57,11.71-1.84,13.28-7.61
								c0.12-0.45,0.21-0.89,0.27-1.34c0.07-0.5,0.11-1,0.11-1.49h0v-3.36H985.86z"/>
							<path id="XMLID_207_" class="st16" d="M986.3,413.78c-0.06,0.45-0.15,0.89-0.27,1.34c-1.57,5.77-7.51,9.18-13.28,7.61
								c-4.31-1.17-7.3-4.79-7.88-8.95c-0.14-0.97-0.15-1.98,0-2.99c0.06-0.45,0.15-0.89,0.27-1.34c1.57-5.77,7.52-9.18,13.29-7.61
								c4.31,1.17,7.3,4.79,7.88,8.95C986.44,411.77,986.45,412.78,986.3,413.78z"/>
							<path id="XMLID_206_" class="st15" d="M986.3,413.78h-21.43c-0.14-0.97-0.15-1.98,0-2.99h21.43
								C986.44,411.77,986.45,412.78,986.3,413.78z"/>
						</g>
					</g>
				</g>
			</g>
			<g id="XMLID_74_">
				<path id="XMLID_83_" class="st17" d="M650.07,579.46c-5.63-0.8-13.98,0.49-22.88,3.8c-0.84,0.31-1.68,0.64-2.53,0.99
					c-0.85,0.35-1.67,0.71-2.49,1.08c-8.65,3.9-15.48,8.86-18.93,13.39l-4.47,1.84l2.37,5.76c2.28,5.55,15.29,5.5,29.72,0.13
					c0.84-0.31,1.68-0.64,2.53-0.99c0.85-0.35,1.67-0.71,2.49-1.08c14.03-6.33,23.31-15.45,21.03-21l-2.37-5.76L650.07,579.46z"/>
				<path id="XMLID_107_" class="st18" d="M654.54,577.62c2.28,5.55-7,14.67-21.03,21c-0.82,0.37-1.65,0.73-2.49,1.08
					c-0.85,0.35-1.69,0.67-2.53,0.99c-14.43,5.37-27.44,5.41-29.72-0.13c-2.28-5.54,7.01-14.66,21.04-20.99
					c0.82-0.37,1.65-0.73,2.49-1.08c0.85-0.35,1.69-0.67,2.53-0.99C639.26,572.13,652.27,572.09,654.54,577.62z"/>
				<path id="XMLID_100_" class="st17" d="M624.83,577.5l8.68,21.12c-0.82,0.37-1.65,0.73-2.49,1.08c-0.85,0.35-1.69,0.67-2.53,0.99
					l-8.68-21.12c0.82-0.37,1.65-0.73,2.49-1.08C623.15,578.14,623.99,577.81,624.83,577.5z"/>
			</g>
			<g id="XMLID_244_">
				<path id="XMLID_247_" class="st19" d="M912.68,298.92c-2.98-4.3-9.06-9.15-16.84-13.09c-0.73-0.37-1.48-0.74-2.24-1.09
					c-0.76-0.35-1.52-0.69-2.28-1.01c-8.03-3.41-15.65-4.94-20.86-4.44l-4.03-1.88l-2.41,5.19c-2.33,5,5.82,13.77,18.45,20.17
					c0.73,0.37,1.48,0.74,2.24,1.09c0.76,0.35,1.52,0.69,2.28,1.01c13.03,5.53,24.99,6.11,27.31,1.11l2.41-5.19L912.68,298.92z"/>
				<path id="XMLID_246_" class="st20" d="M916.71,300.8c-2.33,5-14.28,4.42-27.31-1.11c-0.76-0.32-1.52-0.66-2.28-1.01
					c-0.76-0.35-1.51-0.72-2.24-1.09c-12.63-6.4-20.78-15.17-18.45-20.17c2.32-4.99,14.28-4.41,27.31,1.12
					c0.76,0.32,1.52,0.66,2.28,1.01c0.76,0.35,1.51,0.72,2.24,1.09C910.89,287.04,919.04,295.81,916.71,300.8z"/>
			</g>
			<g id="XMLID_101_">
				<path id="XMLID_103_" class="st21" d="M763.21,651.81h0.11v-3.4h-1.58c-1.39-1.81-3.58-2.99-6.04-2.99h-11.88h-4.1h-11.88
					c-2.46,0-4.65,1.17-6.04,2.99h-1.47v3.4l0,0c-0.07,0.4-0.11,0.81-0.11,1.23l0,0c0,4.21,3.41,7.62,7.62,7.62h11.88h4.1h11.88
					c4.21,0,7.62-3.41,7.62-7.62l0,0C763.31,652.62,763.27,652.21,763.21,651.81z"/>
				<g id="XMLID_88_">
					<path id="XMLID_81_" class="st22" d="M739.72,656.03h-13.88c-3.1,0-5.61-2.51-5.61-5.61v-4.01c0-3.1,2.51-5.61,5.61-5.61h13.88
						V656.03z"/>
					<path id="XMLID_86_" class="st22" d="M743.82,656.03h13.88c3.1,0,5.61-2.51,5.61-5.61v-4.01c0-3.1-2.51-5.61-5.61-5.61h-13.88
						V656.03z"/>
					<rect id="XMLID_82_" x="739.72" y="640.79" class="st21" width="4.1" height="15.24"/>
				</g>
			</g>
			<g id="XMLID_240_">
				<path id="XMLID_250_" class="st21" d="M813.01,657.63l0.09,0.06l1.79-2.89l-1.34-0.83c-0.23-2.28-1.47-4.42-3.56-5.72
					l-10.1-6.25l-3.49-2.16l-10.1-6.25c-2.09-1.3-4.57-1.45-6.71-0.64l-1.25-0.77l-1.79,2.89l0,0c-0.27,0.31-0.52,0.63-0.74,0.99
					l0,0c-2.22,3.58-1.11,8.27,2.47,10.49l10.1,6.25l3.49,2.16l10.1,6.25c3.58,2.22,8.27,1.11,10.49-2.47v0
					C812.68,658.37,812.85,658,813.01,657.63z"/>
				<g id="XMLID_241_">
					<path id="XMLID_249_" class="st22" d="M790.82,648.85l-11.8-7.31c-2.63-1.63-3.45-5.09-1.82-7.72l2.11-3.41
						c1.63-2.63,5.09-3.45,7.72-1.82l11.8,7.31L790.82,648.85z"/>
					<path id="XMLID_243_" class="st22" d="M794.31,651.01l11.8,7.31c2.63,1.63,6.09,0.82,7.72-1.82l2.11-3.41
						c1.63-2.63,0.82-6.09-1.82-7.72l-11.8-7.31L794.31,651.01z"/>
					
						<rect id="XMLID_242_" x="794.53" y="635.83" transform="matrix(0.8502 0.5265 -0.5265 0.8502 458.0998 -322.9833)" class="st21" width="4.1" height="15.24"/>
				</g>
			</g>
			<g id="XMLID_251_">
				<path id="XMLID_256_" class="st21" d="M632.79,308.35l0.08-0.07l-2.12-2.66l-1.23,0.98c-2.22-0.55-4.66-0.11-6.59,1.43
					l-9.29,7.4l-3.21,2.55l-9.29,7.4c-1.93,1.54-2.9,3.82-2.86,6.1l-1.15,0.92l2.12,2.66l0,0c0.2,0.35,0.42,0.7,0.68,1.03v0
					c2.62,3.29,7.41,3.83,10.71,1.21l9.29-7.4l3.21-2.55l9.29-7.4c3.29-2.62,3.83-7.41,1.21-10.71v0
					C633.38,308.91,633.09,308.62,632.79,308.35z"/>
				<g id="XMLID_252_">
					<path id="XMLID_255_" class="st22" d="M617.05,326.28l-10.86,8.65c-2.42,1.93-5.95,1.53-7.88-0.89l-2.5-3.14
						c-1.93-2.42-1.53-5.95,0.89-7.88l10.86-8.65L617.05,326.28z"/>
					<path id="XMLID_254_" class="st22" d="M620.25,323.73l10.86-8.65c2.42-1.93,2.82-5.46,0.89-7.88l-2.5-3.14
						c-1.93-2.42-5.46-2.82-7.88-0.89l-10.86,8.65L620.25,323.73z"/>
					
						<rect id="XMLID_253_" x="611.85" y="311.43" transform="matrix(0.7822 -0.6231 0.6231 0.7822 -65.0556 452.0182)" class="st21" width="4.1" height="15.24"/>
				</g>
			</g>
			<g id="XMLID_115_">
				<path id="XMLID_106_" class="st7" d="M640.9,391.03h-45.32c-1.96,0-3.56,1.59-3.56,3.56v10.86h52.43v-10.86
					C644.46,392.62,642.86,391.03,640.9,391.03z"/>
				<path id="XMLID_110_" class="st23" d="M640.9,391.03h-22c-1.96,0-3.56,1.59-3.56,3.56v10.86h29.11v-10.86
					C644.46,392.62,642.86,391.03,640.9,391.03z"/>
				<path id="XMLID_123_" class="st24" d="M655.59,420.17v128.85c0,4.14-3.35,7.48-7.48,7.48h-59.75c-4.13,0-7.48-3.34-7.48-7.48
					V420.17H655.59z"/>
				<rect id="XMLID_105_" x="575.64" y="404.46" class="st23" width="85.2" height="21.63"/>
				<rect id="XMLID_108_" x="575.64" y="408.72" class="st7" width="31.02" height="17.37"/>
				<rect id="XMLID_113_" x="580.89" y="426.09" class="st25" width="74.71" height="10.16"/>
				<path id="XMLID_121_" class="st25" d="M610.27,426.09V556.5h-21.9c-4.13,0-7.48-3.34-7.48-7.48V426.09H610.27z"/>
				<rect id="XMLID_111_" x="601.42" y="447.06" class="st8" width="54.18" height="77.17"/>
				<rect id="XMLID_102_" x="601.42" y="447.06" class="st26" width="8.85" height="77.17"/>
				<rect id="XMLID_114_" x="605.84" y="459.84" class="st27" width="49.64" height="2.95"/>
				<rect id="XMLID_116_" x="605.84" y="492.28" class="st27" width="49.64" height="2.95"/>
				<rect id="XMLID_117_" x="605.84" y="508.01" class="st27" width="49.64" height="2.95"/>
			</g>
			<g id="XMLID_144_">
				<rect id="XMLID_119_" x="835.48" y="482.28" class="st28" width="68.64" height="12.62"/>
				<path id="XMLID_118_" class="st7" d="M912.36,623.84h-80.28c-10.61,0-19.21-8.6-19.21-19.21v-93.72
					c0-10.61,8.6-19.21,19.21-19.21h80.28c10.61,0,19.21,8.6,19.21,19.21v93.72C931.56,615.24,922.96,623.84,912.36,623.84z"/>
				<path id="XMLID_138_" class="st8" d="M931.56,510.58v94.37c0,10.43-8.45,18.88-18.88,18.88h-47.5
					c-10.43,0-18.88-8.45-18.88-18.88v-94.37c0-10.42,8.45-18.87,18.88-18.87h47.5C923.11,491.71,931.56,500.16,931.56,510.58z"/>
				<path id="XMLID_122_" class="st7" d="M831.63,457.56h76.34c2.29,0,4.14,1.85,4.14,4.14v19.65c0,2.29-1.85,4.14-4.14,4.14h-76.34
					c-2.29,0-4.14-1.85-4.14-4.14V461.7C827.5,459.41,829.35,457.56,831.63,457.56z"/>
				<polygon id="XMLID_135_" class="st29" points="846.3,519.22 846.3,594.85 831.17,594.69 831.94,519.08 				"/>
				<polygon id="XMLID_136_" class="st30" points="931.95,520.09 931.18,595.7 846.3,594.85 846.3,519.22 931.56,520.09 				"/>
				<path id="XMLID_124_" class="st8" d="M863.21,457.56h44.76c2.29,0,4.14,1.85,4.14,4.14v19.65c0,2.29-1.85,4.14-4.14,4.14h-44.76
					c-2.29,0-4.14-1.85-4.14-4.14V461.7C859.08,459.41,860.93,457.56,863.21,457.56z"/>
				<g id="XMLID_125_">
					<path id="XMLID_120_" class="st31" d="M831.43,479.66h-0.64c-0.49,0-0.89-0.4-0.89-0.89v-14.61c0-0.49,0.4-0.89,0.89-0.89h0.64
						c0.49,0,0.89,0.4,0.89,0.89v14.61C832.32,479.26,831.92,479.66,831.43,479.66z"/>
					<path id="XMLID_126_" class="st31" d="M837.88,479.66h-0.64c-0.49,0-0.89-0.4-0.89-0.89v-14.61c0-0.49,0.4-0.89,0.89-0.89h0.64
						c0.49,0,0.89,0.4,0.89,0.89v14.61C838.76,479.26,838.37,479.66,837.88,479.66z"/>
					<path id="XMLID_127_" class="st31" d="M844.33,479.66h-0.64c-0.49,0-0.89-0.4-0.89-0.89v-14.61c0-0.49,0.4-0.89,0.89-0.89h0.64
						c0.49,0,0.89,0.4,0.89,0.89v14.61C845.21,479.26,844.82,479.66,844.33,479.66z"/>
					<path id="XMLID_128_" class="st31" d="M850.77,479.66h-0.64c-0.49,0-0.89-0.4-0.89-0.89v-14.61c0-0.49,0.4-0.89,0.89-0.89h0.64
						c0.49,0,0.89,0.4,0.89,0.89v14.61C851.66,479.26,851.27,479.66,850.77,479.66z"/>
					<path id="XMLID_131_" class="st31" d="M857.22,479.66h-0.64c-0.49,0-0.89-0.4-0.89-0.89v-14.61c0-0.49,0.4-0.89,0.89-0.89h0.64
						c0.49,0,0.89,0.4,0.89,0.89v14.61C858.11,479.26,857.72,479.66,857.22,479.66z"/>
					<path id="XMLID_132_" class="st32" d="M863.67,479.66h-0.64c-0.49,0-0.89-0.4-0.89-0.89v-14.61c0-0.49,0.4-0.89,0.89-0.89h0.64
						c0.49,0,0.89,0.4,0.89,0.89v14.61C864.56,479.26,864.16,479.66,863.67,479.66z"/>
					<path id="XMLID_134_" class="st32" d="M870.12,479.66h-0.64c-0.49,0-0.89-0.4-0.89-0.89v-14.61c0-0.49,0.4-0.89,0.89-0.89h0.64
						c0.49,0,0.89,0.4,0.89,0.89v14.61C871.01,479.26,870.61,479.66,870.12,479.66z"/>
					<path id="XMLID_137_" class="st32" d="M876.57,479.66h-0.64c-0.49,0-0.89-0.4-0.89-0.89v-14.61c0-0.49,0.4-0.89,0.89-0.89h0.64
						c0.49,0,0.89,0.4,0.89,0.89v14.61C877.46,479.26,877.06,479.66,876.57,479.66z"/>
					<path id="XMLID_139_" class="st32" d="M883.02,479.66h-0.64c-0.49,0-0.89-0.4-0.89-0.89v-14.61c0-0.49,0.4-0.89,0.89-0.89h0.64
						c0.49,0,0.89,0.4,0.89,0.89v14.61C883.91,479.26,883.51,479.66,883.02,479.66z"/>
					<path id="XMLID_140_" class="st32" d="M889.47,479.66h-0.64c-0.49,0-0.89-0.4-0.89-0.89v-14.61c0-0.49,0.4-0.89,0.89-0.89h0.64
						c0.49,0,0.89,0.4,0.89,0.89v14.61C890.36,479.26,889.96,479.66,889.47,479.66z"/>
					<path id="XMLID_141_" class="st32" d="M895.92,479.66h-0.64c-0.49,0-0.89-0.4-0.89-0.89v-14.61c0-0.49,0.4-0.89,0.89-0.89h0.64
						c0.49,0,0.89,0.4,0.89,0.89v14.61C896.81,479.26,896.41,479.66,895.92,479.66z"/>
					<path id="XMLID_142_" class="st32" d="M902.37,479.66h-0.64c-0.49,0-0.89-0.4-0.89-0.89v-14.61c0-0.49,0.4-0.89,0.89-0.89h0.64
						c0.49,0,0.89,0.4,0.89,0.89v14.61C903.26,479.26,902.86,479.66,902.37,479.66z"/>
					<path id="XMLID_143_" class="st32" d="M908.82,479.66h-0.64c-0.49,0-0.89-0.4-0.89-0.89v-14.61c0-0.49,0.4-0.89,0.89-0.89h0.64
						c0.49,0,0.89,0.4,0.89,0.89v14.61C909.71,479.26,909.31,479.66,908.82,479.66z"/>
				</g>
			</g>
			<g id="XMLID_180_">
				<path id="XMLID_187_" class="st28" d="M791.35,509.25v102.39c0,7.02-5.68,12.7-12.69,12.7h-81.27c-7.02,0-12.7-5.68-12.7-12.7
					V509.25c0-7.02,5.68-12.7,12.7-12.7h81.27C785.67,496.55,791.35,502.23,791.35,509.25z"/>
				<g id="XMLID_177_">
					<path id="XMLID_209_" class="st33" d="M779.34,548.98l-14.32-0.03l-14.32-0.04c-3.96-0.01-7.17,3.19-7.18,7.15v0.02
						c0,0.01,0,0.01,0,0.01v0.01c0,0.01,0,0.01,0,0.01c0.02,3.93,3.21,7.12,7.14,7.12l14.33,0.04l14.32,0.04c0.01,0,0.01,0,0.01,0
						c3.95,0,7.16-3.2,7.17-7.15v-0.04c0-0.01,0-0.01,0-0.01C786.47,552.18,783.28,548.99,779.34,548.98z"/>
					<path id="XMLID_210_" class="st33" d="M779.34,573.71l-14.32-0.03l-14.32-0.04c-3.96-0.01-7.17,3.19-7.18,7.15v0.02
						c0,0.01,0,0.01,0,0.01v0.01c0,0.01,0,0.01,0,0.01c0.02,3.93,3.21,7.12,7.14,7.12l14.33,0.04l14.32,0.04c0.01,0,0.01,0,0.01,0
						c3.95,0,7.16-3.2,7.17-7.15v-0.04c0-0.01,0-0.01,0-0.01C786.47,576.91,783.28,573.72,779.34,573.71z"/>
					<path id="XMLID_211_" class="st33" d="M779.34,598.44l-14.32-0.03l-14.32-0.04c-3.96-0.01-7.17,3.19-7.18,7.15v0.02
						c0,0.01,0,0.01,0,0.01v0.01c0,0.01,0,0.01,0,0.01c0.02,3.93,3.21,7.12,7.14,7.12l14.33,0.04l14.32,0.04c0.01,0,0.01,0,0.01,0
						c3.95,0,7.16-3.2,7.17-7.15v-0.04c0-0.01,0-0.01,0-0.01C786.47,601.64,783.28,598.46,779.34,598.44z"/>
					<path id="XMLID_212_" class="st33" d="M728.22,548.98l-14.32-0.03l-14.32-0.04c-3.96-0.01-7.17,3.19-7.18,7.15v0.02
						c0,0.01,0,0.01,0,0.01v0.01c0,0.01,0,0.01,0,0.01c0.02,3.93,3.21,7.12,7.14,7.12l14.33,0.04l14.32,0.04c0.01,0,0.01,0,0.01,0
						c3.95,0,7.16-3.2,7.17-7.15v-0.04c0-0.01,0-0.01,0-0.01C735.35,552.18,732.16,548.99,728.22,548.98z"/>
					<path id="XMLID_213_" class="st33" d="M728.22,573.71l-14.32-0.03l-14.32-0.04c-3.96-0.01-7.17,3.19-7.18,7.15v0.02
						c0,0.01,0,0.01,0,0.01v0.01c0,0.01,0,0.01,0,0.01c0.02,3.93,3.21,7.12,7.14,7.12l14.33,0.04l14.32,0.04c0.01,0,0.01,0,0.01,0
						c3.95,0,7.16-3.2,7.17-7.15v-0.04c0-0.01,0-0.01,0-0.01C735.35,576.91,732.16,573.72,728.22,573.71z"/>
					<path id="XMLID_214_" class="st33" d="M728.22,598.44l-14.32-0.03l-14.32-0.04c-3.96-0.01-7.17,3.19-7.18,7.15v0.02
						c0,0.01,0,0.01,0,0.01v0.01c0,0.01,0,0.01,0,0.01c0.02,3.93,3.21,7.12,7.14,7.12l14.33,0.04l14.32,0.04c0.01,0,0.01,0,0.01,0
						c3.95,0,7.16-3.2,7.17-7.15v-0.04c0-0.01,0-0.01,0-0.01C735.35,601.64,732.16,598.46,728.22,598.44z"/>
				</g>
				<g id="XMLID_146_">
					<g id="XMLID_147_">
						<path id="XMLID_151_" class="st11" d="M786.48,551.09c-0.01,3.95-3.22,7.15-7.16,7.15c-0.01,0-0.01,0-0.01,0l-14.32-0.04
							l0.01-4.79l14.31,0.01h0.04C783.24,553.42,786.42,552.37,786.48,551.09z"/>
						<path id="XMLID_150_" class="st10" d="M786.48,551.04c0,0.01,0,0.01,0,0.01v0.04c-0.07,1.29-3.24,2.33-7.14,2.33h-0.04
							l-14.31-0.01l0.01-2.37v-2.38l0.01-4.79l14.32,0.03C783.28,543.91,786.47,547.1,786.48,551.04z"/>
						<path id="XMLID_149_" class="st12" d="M764.99,553.41l-0.01,4.79l-14.33-0.04c-3.93-0.01-7.12-3.19-7.14-7.12
							c0.02,1.3,3.21,2.36,7.14,2.36l14.33,0.01H764.99z"/>
						<path id="XMLID_148_" class="st8" d="M765.01,543.87l-0.01,4.79v2.38l-0.01,2.37h-0.01l-14.33-0.01
							c-3.93,0-7.12-1.06-7.14-2.36c0-0.01,0-0.01,0-0.01v-0.01c0-0.01,0-0.01,0-0.01v-0.02c0.01-3.96,3.22-7.15,7.18-7.15
							L765.01,543.87z"/>
					</g>
					<g id="XMLID_152_">
						<path id="XMLID_156_" class="st11" d="M786.48,575.82c-0.01,3.95-3.22,7.15-7.16,7.15c-0.01,0-0.01,0-0.01,0l-14.32-0.04
							l0.01-4.79l14.31,0.01h0.04C783.24,578.15,786.42,577.11,786.48,575.82z"/>
						<path id="XMLID_155_" class="st10" d="M786.48,575.77c0,0.01,0,0.01,0,0.01v0.04c-0.07,1.29-3.24,2.33-7.14,2.33h-0.04
							l-14.31-0.01l0.01-2.37v-2.38l0.01-4.79l14.32,0.03C783.28,568.65,786.47,571.83,786.48,575.77z"/>
						<path id="XMLID_154_" class="st12" d="M764.99,578.14l-0.01,4.79l-14.33-0.04c-3.93-0.01-7.12-3.19-7.14-7.12
							c0.02,1.3,3.21,2.36,7.14,2.36l14.33,0.01H764.99z"/>
						<path id="XMLID_153_" class="st8" d="M765.01,568.6l-0.01,4.79v2.38l-0.01,2.37h-0.01l-14.33-0.01
							c-3.93,0-7.12-1.06-7.14-2.36c0-0.01,0-0.01,0-0.01v-0.01c0-0.01,0-0.01,0-0.01v-0.02c0.01-3.96,3.22-7.15,7.18-7.15
							L765.01,568.6z"/>
					</g>
					<g id="XMLID_157_">
						<path id="XMLID_161_" class="st11" d="M786.48,600.55c-0.01,3.95-3.22,7.15-7.16,7.15c-0.01,0-0.01,0-0.01,0l-14.32-0.04
							l0.01-4.79l14.31,0.01h0.04C783.24,602.88,786.42,601.84,786.48,600.55z"/>
						<path id="XMLID_160_" class="st10" d="M786.48,600.5c0,0.01,0,0.01,0,0.01v0.04c-0.07,1.29-3.24,2.33-7.14,2.33h-0.04
							l-14.31-0.01l0.01-2.37v-2.38l0.01-4.79l14.32,0.03C783.28,593.38,786.47,596.57,786.48,600.5z"/>
						<path id="XMLID_159_" class="st12" d="M764.99,602.87l-0.01,4.79l-14.33-0.04c-3.93-0.01-7.12-3.19-7.14-7.12
							c0.02,1.3,3.21,2.36,7.14,2.36l14.33,0.01H764.99z"/>
						<path id="XMLID_158_" class="st8" d="M765.01,593.33l-0.01,4.79v2.38l-0.01,2.37h-0.01l-14.33-0.01
							c-3.93,0-7.12-1.06-7.14-2.36c0-0.01,0-0.01,0-0.01v-0.01c0-0.01,0-0.01,0-0.01v-0.02c0.01-3.96,3.22-7.15,7.18-7.15
							L765.01,593.33z"/>
					</g>
					<g id="XMLID_172_">
						<path id="XMLID_176_" class="st11" d="M735.37,551.09c-0.01,3.95-3.22,7.15-7.16,7.15c-0.01,0-0.01,0-0.01,0l-14.32-0.04
							l0.01-4.79l14.31,0.01h0.04C732.12,553.42,735.3,552.37,735.37,551.09z"/>
						<path id="XMLID_175_" class="st10" d="M735.37,551.04c0,0.01,0,0.01,0,0.01v0.04c-0.07,1.29-3.24,2.33-7.14,2.33h-0.04
							l-14.31-0.01l0.01-2.37v-2.38l0.01-4.79l14.32,0.03C732.16,543.91,735.35,547.1,735.37,551.04z"/>
						<path id="XMLID_174_" class="st12" d="M713.88,553.41l-0.01,4.79l-14.33-0.04c-3.93-0.01-7.12-3.19-7.14-7.12
							c0.02,1.3,3.21,2.36,7.14,2.36l14.33,0.01H713.88z"/>
						<path id="XMLID_173_" class="st8" d="M713.9,543.87l-0.01,4.79v2.38l-0.01,2.37h-0.01l-14.33-0.01
							c-3.93,0-7.12-1.06-7.14-2.36c0-0.01,0-0.01,0-0.01v-0.01c0-0.01,0-0.01,0-0.01v-0.02c0.01-3.96,3.22-7.15,7.18-7.15
							L713.9,543.87z"/>
					</g>
					<g id="XMLID_167_">
						<path id="XMLID_171_" class="st11" d="M735.37,575.82c-0.01,3.95-3.22,7.15-7.16,7.15c-0.01,0-0.01,0-0.01,0l-14.32-0.04
							l0.01-4.79l14.31,0.01h0.04C732.12,578.15,735.3,577.11,735.37,575.82z"/>
						<path id="XMLID_170_" class="st10" d="M735.37,575.77c0,0.01,0,0.01,0,0.01v0.04c-0.07,1.29-3.24,2.33-7.14,2.33h-0.04
							l-14.31-0.01l0.01-2.37v-2.38l0.01-4.79l14.32,0.03C732.16,568.65,735.35,571.83,735.37,575.77z"/>
						<path id="XMLID_169_" class="st12" d="M713.88,578.14l-0.01,4.79l-14.33-0.04c-3.93-0.01-7.12-3.19-7.14-7.12
							c0.02,1.3,3.21,2.36,7.14,2.36l14.33,0.01H713.88z"/>
						<path id="XMLID_168_" class="st8" d="M713.9,568.6l-0.01,4.79v2.38l-0.01,2.37h-0.01l-14.33-0.01c-3.93,0-7.12-1.06-7.14-2.36
							c0-0.01,0-0.01,0-0.01v-0.01c0-0.01,0-0.01,0-0.01v-0.02c0.01-3.96,3.22-7.15,7.18-7.15L713.9,568.6z"/>
					</g>
					<g id="XMLID_162_">
						<path id="XMLID_166_" class="st11" d="M735.37,600.55c-0.01,3.95-3.22,7.15-7.16,7.15c-0.01,0-0.01,0-0.01,0l-14.32-0.04
							l0.01-4.79l14.31,0.01h0.04C732.12,602.88,735.3,601.84,735.37,600.55z"/>
						<path id="XMLID_165_" class="st10" d="M735.37,600.5c0,0.01,0,0.01,0,0.01v0.04c-0.07,1.29-3.24,2.33-7.14,2.33h-0.04
							l-14.31-0.01l0.01-2.37v-2.38l0.01-4.79l14.32,0.03C732.16,593.38,735.35,596.57,735.37,600.5z"/>
						<path id="XMLID_164_" class="st12" d="M713.88,602.87l-0.01,4.79l-14.33-0.04c-3.93-0.01-7.12-3.19-7.14-7.12
							c0.02,1.3,3.21,2.36,7.14,2.36l14.33,0.01H713.88z"/>
						<path id="XMLID_163_" class="st8" d="M713.9,593.33l-0.01,4.79v2.38l-0.01,2.37h-0.01l-14.33-0.01
							c-3.93,0-7.12-1.06-7.14-2.36c0-0.01,0-0.01,0-0.01v-0.01c0-0.01,0-0.01,0-0.01v-0.02c0.01-3.96,3.22-7.15,7.18-7.15
							L713.9,593.33z"/>
					</g>
				</g>
				<path id="XMLID_185_" class="st34" d="M791.35,509.25v9.58H684.69v-9.58c0-7.02,5.68-12.7,12.7-12.7h81.27
					C785.67,496.55,791.35,502.23,791.35,509.25z"/>
				<g id="XMLID_178_">
					<circle id="XMLID_145_" class="st26" cx="774.59" cy="508.47" r="4.71"/>
					<circle id="XMLID_179_" class="st26" cx="701.45" cy="508.47" r="4.71"/>
				</g>
			</g>
			<path id="XMLID_257_" class="st4" d="M956.29,554.03c-0.28,0.24-0.58,0.45-0.9,0.65c-4.1,2.59-9.53,1.36-12.12-2.74
				c-1.93-3.07-1.74-6.87,0.2-9.68c0.45-0.66,1-1.27,1.64-1.79c0.28-0.24,0.58-0.45,0.9-0.65c4.11-2.59,9.53-1.36,12.12,2.74
				c1.94,3.07,1.74,6.87-0.2,9.68C957.48,552.9,956.93,553.5,956.29,554.03z"/>
			<path id="XMLID_263_" class="st4" d="M979.98,561.96c-0.21,0.18-0.44,0.34-0.68,0.49c-3.09,1.95-7.17,1.02-9.12-2.06
				c-1.45-2.31-1.31-5.17,0.15-7.29c0.34-0.5,0.75-0.95,1.23-1.34c0.21-0.18,0.44-0.34,0.68-0.49c3.09-1.95,7.17-1.02,9.12,2.07
				c1.46,2.31,1.31,5.17-0.15,7.28C980.88,561.11,980.46,561.57,979.98,561.96z"/>
			<path id="XMLID_264_" class="st4" d="M963.7,582.72c-0.21,0.18-0.44,0.34-0.68,0.49c-3.09,1.95-7.17,1.02-9.12-2.06
				c-1.45-2.31-1.31-5.17,0.15-7.29c0.34-0.5,0.75-0.95,1.23-1.34c0.21-0.18,0.44-0.34,0.68-0.49c3.09-1.95,7.17-1.02,9.12,2.07
				c1.46,2.31,1.31,5.17-0.15,7.28C964.59,581.88,964.18,582.33,963.7,582.72z"/>
		</g>
	</g>
</g>
<g id="Layer_1">
	<ellipse id="XMLID_424_" class="st35" cx="440.49" cy="751.21" rx="90.19" ry="30.85"/>
	<g id="XMLID_1_">
		<g id="XMLID_22_">
			<path id="XMLID_423_" class="st36" d="M615.41,389.79l0.92-3.93c0,0-9.85,2.87-12.97,3.81c-2.73,0.81-13.47,3.16-16.13,3.74
				c-5.22,7.15-9.04,15.88-19.42,14.54l0.13,6.06c0,0,4.49,2.42,10.99,0.91c6.5-1.51,25.55-4.34,25.55-4.34l0.46-1.7l-11.3-0.95
				l20.96-4.77l0.46-1.97l-14.24-0.15l19.3-5.18l-0.37-2.72l-22.56,2.96L615.41,389.79z"/>
			<rect id="XMLID_422_" x="581.47" y="339.18" class="st4" width="77.31" height="110.04"/>
			<g id="XMLID_42_">
				<path id="XMLID_421_" class="st37" d="M500.64,444.06c0,0,43.02-12.41,67.03-42.83c8.12,5.21,8.82,9.25,8.82,9.25
					s-39.92,41.36-71.22,45.1C501.06,446.05,500.64,444.06,500.64,444.06z"/>
				<path id="XMLID_420_" class="st37" d="M573.06,405.44c-1.28-1.26-3.01-2.68-5.39-4.21c-21.06,26.7-56.75,39.52-65.19,42.26
					C529.93,451.74,553.22,425.08,573.06,405.44z"/>
				<path id="XMLID_419_" class="st36" d="M502.48,443.48c-1.18,0.38-1.83,0.57-1.83,0.57s0.41,1.99,4.62,11.52
					c31.3-3.75,71.22-45.1,71.22-45.1s-0.36-2.02-3.42-5.03C553.22,425.08,529.93,451.74,502.48,443.48z"/>
				<path id="XMLID_418_" class="st26" d="M485.95,376.83l-0.26,2.77v0l-4.82,52.02c0,0,3.73,8.37,9.73,18.93
					c0,0,1.19,1.88,3.18,3.77c-3.75-24.35-6.59-48.7-6.93-73.04C486.21,378.42,485.95,376.83,485.95,376.83z"/>
				<path id="XMLID_417_" class="st38" d="M555.56,409.21c-25.86,21.69-46.94,29.03-46.94,29.03
					c-13.91-26.06-19.76-47.92-21.77-56.96c0.35,24.35,3.18,48.7,6.93,73.04c0.73,0.7,1.58,1.39,2.51,1.99
					c25.31-6.2,47.66-22.09,67.89-38.89C562.29,414.45,559.53,411.28,555.56,409.21z"/>
				<path id="XMLID_416_" class="st26" d="M496.29,456.32c1.3,0.84,2.76,1.51,4.36,1.74c5.84,0.83,19.6-1.3,30.17-7.51
					c10.57-6.21,36.86-25.21,36.86-25.21s-0.9-3.78-3.5-7.91C543.95,434.23,521.6,450.12,496.29,456.32z"/>
				<g id="XMLID_407_">
					<path id="XMLID_415_" class="st37" d="M348.72,440.92c3.23,1.57,6.79,2.46,10.3,3.16c1.17,0.23,2.3,0.33,3.42,0.36
						c-23.94-32.7-27.06-71.44-27.06-71.44s-6.08,0.22-12.57,2.31c3.62,25.78,14.56,49.17,23.74,65.09
						C347.25,440.4,347.98,440.56,348.72,440.92z"/>
					<path id="XMLID_414_" class="st37" d="M360.62,446.31c1.22,0.4,2.44,0.54,3.67,0.59c-25.64-33.18-28.91-73.91-28.91-73.91
						s-2.92,0.11-6.88,0.87c3.31,24.9,10.34,52.07,27.83,70.34C357.7,445.06,359.13,445.82,360.62,446.31z"/>
					<path id="XMLID_413_" class="st36" d="M328.51,373.86c-1.75,0.34-3.7,0.8-5.69,1.44c4.58,32.66,20.92,61.49,30.54,76.13
						c0.3,0.02,0.6,0.06,0.89,0.13c0.66,0.14,1.29,0.38,1.95,0.56c1.24,0.32,2.21,1.17,2.89,2.22c0.03,0.05,0.06,0.11,0.09,0.16
						c0.06,0.01,0.12,0.03,0.19,0.05c1.06,0.23,2.13,0.38,3.2,0.54c1.51-0.6,3.02-1.19,4.54-1.78
						C341.56,435.99,332.43,403.34,328.51,373.86z"/>
					<path id="XMLID_412_" class="st37" d="M335.39,372.99c0,0,6.03-7.25,6.84-12.18c0.81-4.93,6.95-16.1,6.95-16.1
						s-3.88-0.09-4.99,1.81c-1.11,1.9-5.1,6.34-5.1,6.34s-1.43-4.79,0.12-10.16c0.18-0.54,1.62-4.59,3.58-5.2
						c2.11-0.66,3.87,3.4,3.87,3.4l2.09,0.26c0,0,1.54-8.17-5.38-8.45c-4.66-0.19-6.87,3.76-7.83,6.37
						c-0.03-0.02-0.35,1.06-0.35,1.06c-0.19,0.67-0.28,1.12-0.29,1.15l-0.43,1.74l-1.66-22.69l-2.74,0.19l-1.18,19.95l-3.03-13.92
						l-1.83,0.85l-0.44,21.49l-3.22-10.87l-1.57,0.79c0,0,1.08,19.23,0.91,25.9c-0.16,6.67,3.11,10.58,3.11,10.58L335.39,372.99z"/>
					<path id="XMLID_411_" class="st37" d="M328.48,374.26l6.91-1.27c0,0,6.03-7.25,6.84-12.18c0.81-4.93,6.95-16.1,6.95-16.1
						s-3.88-0.09-4.99,1.81c-1.11,1.9-5.1,6.34-5.1,6.34s-0.12-0.42-0.26-1.15C333.06,359.11,324.45,365.73,328.48,374.26z"/>
					<path id="XMLID_410_" class="st36" d="M328.48,374.26c-4.03-8.53,4.58-15.15,10.35-22.54c-0.33-1.73-0.72-5.22,0.38-9.02
						c0.18-0.54,1.62-4.59,3.58-5.2c2.11-0.66,3.87,3.4,3.87,3.4l2.09,0.26c0,0,1.54-8.17-5.38-8.45c-4.66-0.19-6.87,3.76-7.83,6.37
						c-0.03-0.02-0.35,1.06-0.35,1.06c-0.19,0.67-0.28,1.12-0.29,1.15l-0.43,1.74l-1.66-22.69l-2.74,0.19l-1.18,19.95l-3.03-13.92
						l-1.83,0.85l-0.44,21.49l-3.22-10.87l-1.57,0.79c0,0,1.08,19.23,0.91,25.9c-0.16,6.67,3.11,10.58,3.11,10.58L328.48,374.26z"/>
					<path id="XMLID_409_" class="st37" d="M344.19,346.52c-0.5,0.86-1.6,2.24-2.64,3.5c-0.35,2.1,1.1,2.41,2.22,2.92
						c0.52,0.24,0.08,1.57,0.73,1.27c2.05-4.7,4.69-9.51,4.69-9.51S345.3,344.62,344.19,346.52z"/>
					<path id="XMLID_408_" class="st36" d="M343.6,337.47c1.73,0.37,3.05,3.43,3.05,3.43l2.09,0.26c0,0,1.37-7.33-4.37-8.33
						c-0.04,0.07-0.09,0.14-0.12,0.21C343.57,334.51,343.39,336.06,343.6,337.47z"/>
				</g>
				<path id="XMLID_406_" class="st26" d="M384.52,378.79c-3.07,27.82-4.75,59.34-17.72,84.2c4.97,0.48,9.89-1.69,13.36-8.76
					c0.14,0.06,0.28,0.12,0.42,0.18c5.18-10.35,8.25-18.3,8.25-18.3L384.52,378.79z"/>
				<path id="XMLID_405_" class="st38" d="M366.8,462.99c12.97-24.86,14.65-56.37,17.72-84.2l-0.03-0.34c0,0-3.99,26.31-20.42,60.49
					c0,0-19.6-27.29-24.33-60.49c-5.88-1.25-10.14-0.1-13.1,1.69c8.93,26.53,17.34,53.84,30.12,78.71
					C359.82,461.02,363.32,462.65,366.8,462.99z"/>
				<path id="XMLID_404_" class="st26" d="M326.65,380.14c-4.19,2.51-5.81,6.27-5.81,6.27s14.55,48.09,30.07,66.99
					c1.56,1.9,3.59,3.82,5.86,5.45C343.99,433.97,335.57,406.67,326.65,380.14z"/>
				<path id="XMLID_403_" d="M421.2,722.45c-3.4-1.24-8.05-3.23-11.4-1.25c-3.05,1.8-3.83,6.03-6.07,8.59
					c-3.16,3.63-8.84,6.41-12.86,8.97c-6.81,4.35-14.22,8.83-17.55,16.27c-0.57,1.27-0.95,2.91-0.02,3.94
					c0.71,0.79,1.89,0.86,2.94,0.85c10.86-0.09,21.68-2.97,31.19-8.29c3.21-1.8,6.31-3.88,9.8-4.99c2.78-0.88,6.06-1.32,7.71-3.76
					c1.23-1.82,1.14-4.21,0.93-6.41c-0.3-3.24-0.74-6.47-1.31-9.67c-0.18-1.03-0.41-2.12-1.1-2.9
					C422.88,723.12,422.03,722.75,421.2,722.45z"/>
				<path id="XMLID_402_" d="M458.01,722.45c3.4-1.24,8.05-3.23,11.4-1.25c3.05,1.8,3.83,6.03,6.07,8.59
					c3.16,3.63,8.84,6.41,12.86,8.97c6.81,4.35,14.22,8.83,17.55,16.27c0.57,1.27,0.95,2.91,0.02,3.94
					c-0.71,0.79-1.89,0.86-2.94,0.85c-10.86-0.09-21.68-2.97-31.19-8.29c-3.21-1.8-6.31-3.88-9.8-4.99
					c-2.78-0.88-6.06-1.32-7.71-3.76c-1.23-1.82-1.14-4.21-0.93-6.41c0.3-3.24,0.74-6.47,1.31-9.67c0.18-1.03,0.41-2.12,1.1-2.9
					C456.33,723.12,457.18,722.75,458.01,722.45z"/>
				<path id="XMLID_395_" class="st39" d="M454.15,364.66h-7.4l-8.32-0.01l-13.3-0.01h-7.76l0.72-2.73l0.82-3.14
					c0,0-0.05-0.2,0.02-0.51v-0.02c0.19-0.82,1.21-2.31,6.27-2.44c0.4-0.01,0.83-0.01,1.29,0c1.76,0.03,3.87-0.07,6.12-0.2
					c1.39-0.09,2.82-0.19,4.27-0.26c2.48-0.15,4.96-0.23,7.21-0.15c0.47,0.02,0.93,0.05,1.38,0.09c0.66,0.05,1.29,0.12,1.89,0.22
					c0,0,0,0,0.01,0c1.05,0.17,1.98,0.41,2.77,0.76c1.29,0.55,2.18,1.36,2.48,2.52l1.08,4.12L454.15,364.66z"/>
				<path id="XMLID_394_" class="st40" d="M390.29,514.36c0,0,0.61,27.83,2.72,44.27c2.11,16.44,14.22,140.69,10.22,165.67
					c15.9,5.26,23.03,4.38,23.03,4.38s-8.03-143.1-3.2-159.53c4.83-16.44,21.73-13.48,26.14-4.65c5.3,10.6,1.8,162.43,1.8,162.43
					s16.14-0.66,24.25-5.92c-7.2-41.42,1.23-143.1,4.59-206.65C418.05,509.98,390.29,514.36,390.29,514.36z"/>
				<path id="XMLID_393_" class="st41" d="M482.18,431.43c-0.3,5.66-0.38,13.32-0.34,21.68c0.16,26.14,1.6,59.12,1.6,59.12
					c-0.1,0.13-0.21,0.25-0.33,0.38c-9.19,9.23-88.47,10.15-96.85,0.18c-0.16-0.18-0.28-0.37-0.39-0.56c0,0,2.41-47.92,2.73-71.66
					c0.07-4.71,0.04-8.47-0.09-10.71c-0.5-8.33-3.63-29.28-4.63-41.75c-0.21-2.71-0.33-5.02-0.29-6.72
					c0.07-3.11,2.03-5.84,4.91-6.83l31.44-10.83l31.75,0.38l28.56,5.97c3.04,0.63,5.34,3.17,5.71,6.32
					c0.21,1.72,0.17,4.69-0.03,8.44C485.26,397.46,482.84,418.95,482.18,431.43z"/>
				<path id="XMLID_392_" class="st42" d="M483.44,520.85c-3.23,4.2-20.63,6.76-39.89,7.47c-5.88,0.22-11.93,0.26-17.8,0.12
					c-19.63-0.44-37.29-2.9-39.89-7.58c0,0,0.16-3.08,0.39-8.06c3.65,4.33,20.66,6.61,39.5,7.04c5.87,0.13,11.92,0.08,17.8-0.13
					c18.67-0.69,35.61-3.13,39.56-7.1C483.31,517.71,483.44,520.85,483.44,520.85z"/>
				<path id="XMLID_391_" class="st43" d="M457.87,365.46l-6.19-1.34l-31.76-0.4l-31.44,11.2c-2.88,1.03-4.84,3.85-4.9,7.07
					c-0.19,9.81,4.3,39.64,4.92,50.13c0.39,6.67-0.18,26.28-0.9,45C418.8,446.71,439.55,405.64,457.87,365.46z"/>
				<path id="XMLID_390_" class="st37" d="M454.15,364.66c0,0-10.96,12.7-18.24,12.19c-0.31-0.02-0.6-0.06-0.9-0.14
					c-1.3-0.31-2.56-0.75-3.77-1.27l-0.75-0.34c-0.47-0.22-0.93-0.45-1.37-0.69c-0.27-0.15-0.54-0.29-0.8-0.44
					c-0.43-0.24-0.85-0.49-1.26-0.75c-0.01-0.01,0-0.01,0-0.01c-0.03-0.02-0.07-0.05-0.11-0.07c-0.22-0.14-0.44-0.28-0.65-0.43
					c-1.08-0.72-2.1-1.48-3.01-2.23c-0.18-0.15-0.35-0.3-0.54-0.45c-0.71-0.59-1.36-1.17-1.94-1.73c-1.99-1.89-3.23-3.4-3.42-3.63
					l-0.01-0.01c0,0,0-0.01-0.01-0.01c-0.01-0.01-0.01-0.02-0.01-0.02s1.83-0.82,4.04-3.19c0.06-0.07,0.14-0.15,0.21-0.23
					c0.2-0.22,0.4-0.46,0.61-0.71c0.81-0.98,1.65-2.17,2.45-3.6c0.19-0.33,0.35-0.7,0.51-1.11c0.12-0.29,0.23-0.6,0.32-0.93
					c2.02-6.65,1.02-19.57,1.02-19.57l18.42-2.7c0,0-0.1,7.16-0.01,13.62c0,0.29,0.01,0.58,0.02,0.87c0.01,0.3,0.01,0.6,0.02,0.9
					c0.01,0.27,0.01,0.53,0.02,0.79c0.01,0.49,0.02,0.97,0.04,1.43c0.01,0.23,0.02,0.47,0.02,0.69c0,0.05,0.01,0.1,0.01,0.14
					c0,0.14,0.01,0.27,0.02,0.41c0.02,0.63,0.06,1.22,0.1,1.76c0.02,0.38,0.06,0.73,0.09,1.06c0.03,0.34,0.1,0.68,0.18,1.01
					C446.8,360.58,454.15,364.66,454.15,364.66z"/>
				<path id="XMLID_379_" class="st36" d="M445.19,353.23c-0.36,0.66-0.73,1.32-1.11,1.98c-1.81,3.2-3.7,6.35-5.65,9.44
					c-1.65,2.6-3.34,5.16-5.07,7.7c-0.7,1.03-1.41,2.06-2.12,3.08l-0.75-0.34c-0.47-0.22-0.93-0.45-1.37-0.69
					c-0.27-0.15-0.54-0.29-0.8-0.44c-0.43-0.25-0.85-0.5-1.26-0.76c-0.03-0.02-0.07-0.05-0.11-0.07c-0.22-0.14-0.44-0.28-0.65-0.43
					c-1.08-0.73-2.09-1.48-3.01-2.23c-0.18-0.15-0.35-0.3-0.54-0.45c-0.7-0.59-1.35-1.17-1.94-1.73c-1.99-1.89-3.23-3.4-3.42-3.63
					l-0.01-0.01c0,0,0-0.01-0.01-0.01c-0.01-0.01-0.01-0.02-0.01-0.02s1.83-0.82,4.04-3.19c0.06-0.07,0.14-0.15,0.21-0.23
					c0.2-0.22,0.4-0.46,0.61-0.71c0.81-0.98,1.65-2.17,2.45-3.6c0.19-0.33,0.35-0.7,0.51-1.11c0.12-0.29,0.23-0.6,0.32-0.93
					c2.02-6.65,1.02-19.57,1.02-19.57l18.42-2.7c0,0-0.1,7.16-0.01,13.62c0.01,0.29,0.01,0.58,0.02,0.87c0.01,0.3,0.01,0.6,0.02,0.9
					c0.01,0.27,0.02,0.53,0.02,0.79c0.01,0.49,0.02,0.97,0.04,1.43c0.01,0.23,0.02,0.47,0.02,0.69c0,0.05,0.01,0.1,0.01,0.14
					c0.01,0.14,0.01,0.27,0.02,0.41C445.12,352.11,445.15,352.69,445.19,353.23z"/>
				<path id="XMLID_378_" class="st37" d="M445.28,354.29c-0.03-0.32-0.06-0.68-0.09-1.06c-4.25,7.71-8.98,15.05-13.96,22.19
					c1.21,0.52,2.44,1.24,3.78,1.28c8.05,0.23,19.13-12.05,19.13-12.05S445.84,360.06,445.28,354.29z"/>
				<path id="XMLID_377_" class="st44" d="M432.11,341.58c0.88,0.05,1.78,0.08,2.7,0.09C434.28,341.65,433.35,341.62,432.11,341.58z
					"/>
				<path id="XMLID_368_" class="st45" d="M435.3,341.68L435.3,341.68c0,0.01-0.09,0.01-0.28,0
					C435.1,341.68,435.2,341.69,435.3,341.68z"/>
				<path id="XMLID_367_" class="st39" d="M417.37,364.64l1.54-5.86c0,0,5.75,6.53,10.19,9.35c4.44,2.81,6.82,8.73,6.82,8.73
					C433.21,376.94,425.97,377.1,417.37,364.64z"/>
				<path id="XMLID_262_" class="st39" d="M454.15,364.66c0,0,0,0.01-0.01,0.02c-3.18,4.98-6.4,7.95-9.22,9.73
					c-5.15,3.22-9,2.46-9,2.46s0-0.01,0.01-0.02c0.01-0.02,0.03-0.08,0.06-0.17c0.39-1.02,2.46-6.01,6.43-8.53
					c0,0,0.02-0.02,0.07-0.05c1.4-0.9,2.92-2.15,4.35-3.44c0.68-0.62,1.34-1.25,1.96-1.86l0.14-0.14c0.35-0.35,0.69-0.69,1.01-1.02
					c0.09-0.09,0.17-0.18,0.25-0.26c1.11-1.15,1.94-2.06,2.27-2.43c0.06-0.06,0.1-0.1,0.15-0.16l1.08,4.12L454.15,364.66z"/>
				<path id="XMLID_104_" class="st26" d="M417.37,363.73l-29.48,10.32c-2.94,1.03-4.94,3.87-5.01,7.1
					c-0.2,9.84,4.39,39.77,5.02,50.29c0.26,4.26-0.69,24.61-2.14,50.91c11.32-11.91,21.73-24.64,31.6-37.7V363.73z"/>
				<path id="XMLID_98_" class="st38" d="M385.77,482.34c-3.34,60.55-9.32,152.67-9.32,152.67c2.34,4.3,19.87,6.66,40.92,7.36
					V444.64C407.5,457.71,397.08,470.43,385.77,482.34z"/>
				<path id="XMLID_95_" class="st38" d="M496.39,633.42c-2.98,3.96-21,6.65-43.45,9.95l1.21-279.21l26.51,3.29
					c3.09,0.66,5.43,3.3,5.8,6.58c0.92,7.85-2.95,40.51-3.82,57.37C481.37,455.75,496.39,633.42,496.39,633.42z"/>
				<path id="XMLID_94_" class="st41" d="M429.09,368.12c0,0-1.02,2.45-2.03,5.08c0,0-0.01,0,0,0.01c-0.14,0.34-0.27,0.68-0.4,1.02
					c-0.44,1.15-0.86,2.29-1.18,3.21c-5.6-6.73-7.96-12.44-8.11-12.78c-0.01-0.01-0.01-0.02-0.01-0.02l0.66-2.71l0.9-3.66v-0.02
					c0.72,0.86,1.49,1.72,2.29,2.55c0.14,0.15,0.27,0.29,0.4,0.43c1.2,1.24,2.41,2.41,3.51,3.41c2.11,1.95,3.77,3.32,3.95,3.47
					C429.09,368.12,429.09,368.12,429.09,368.12z"/>
				<path id="XMLID_92_" class="st41" d="M454.15,364.66c0,0,0,0.01-0.01,0.02c-0.15,0.35-2.51,6.06-8.1,12.79
					c-0.3-0.88-0.7-1.95-1.12-3.07c-0.12-0.31-0.25-0.64-0.37-0.95c-0.04-0.11-0.09-0.22-0.12-0.33c-1.02-2.59-2.01-4.97-2.01-4.97
					s0.02-0.02,0.07-0.05c0.36-0.27,2.11-1.58,4.25-3.44c0.66-0.57,1.36-1.19,2.06-1.86l0.14-0.14c0.34-0.32,0.69-0.65,1.02-1
					c0.09-0.08,0.18-0.17,0.27-0.26c0.77-0.78,1.53-1.61,2.23-2.44c0.06-0.06,0.1-0.1,0.15-0.16l1.08,4.12L454.15,364.66z"/>
				<path id="XMLID_90_" class="st46" d="M440.49,373.92c-2.94-0.78-6.1-0.78-9.46,0l-0.97,2.56l2.58,4.52h6.19l2.63-4.52
					L440.49,373.92z"/>
				<polygon id="XMLID_80_" class="st47" points="431.03,373.92 427.86,371.17 426.66,374.22 430.06,376.49 				"/>
				<polyline id="XMLID_78_" class="st47" points="440.49,373.92 443.8,371.55 445.04,374.71 441.46,376.49 				"/>
				<path id="XMLID_73_" class="st47" d="M438.83,381h-3.07h-3.12l-2.72,42.3c3.65-5.62,7.44-11.24,10.53-17.23L438.83,381z"/>
				<path id="XMLID_72_" class="st46" d="M440.45,406.07c-3.08,5.99-6.88,11.61-10.53,17.23l-4.12,64.06l9.95,13.35l9.95-13.35
					L440.45,406.07z"/>
				<path id="XMLID_71_" class="st48" d="M441.26,521.2v5.71c0,0.78-0.46,1.43-1.04,1.45c-3.69,0.16-7.44,0.19-11.12,0.1
					c-0.59-0.02-1.05-0.66-1.05-1.45v-5.71c0-0.81,0.49-1.46,1.09-1.44c3.65,0.09,7.37,0.05,11.02-0.11
					C440.76,519.73,441.26,520.38,441.26,521.2z"/>
				<line id="XMLID_70_" class="st49" x1="428.05" y1="524.14" x2="433.47" y2="524.14"/>
				<path id="XMLID_67_" class="st37" d="M493.3,241.59c0,7.67,0.88,56.19-3.23,69.69c-4.11,13.51-32.61,30.1-53.17,30.4
					c-0.54,0.01-1.08,0.01-1.6,0v-52.75c0,0-12.97-1.15-6.88-10.8c6.09-9.64,7.44-21.82,7.44-21.82l-0.56-51.04l-15.78-14.93
					l-37.52,8.6c0.01-0.01,0.01-0.02,0.02-0.03c12.33-18.12,39.02-19.66,55.77-19.97c16.74-0.3,48.44,14.81,51.89,19.38
					C498.49,210,493.3,233.91,493.3,241.59z"/>
				<path id="XMLID_66_" class="st36" d="M435.3,288.93v52.75c-0.09,0.01-0.19,0-0.28,0c-0.06,0-0.13-0.01-0.21-0.01
					c-22.29-2.09-51.91-11.64-55.39-30.34c-4.06-21.8-3.33-72.2-3.33-72.2c-1.75-28.76,4.27-37.79,5.9-40.19l37.52-8.6l15.78,14.93
					l0.56,51.04c0,0-1.35,12.17-7.44,21.82C422.32,287.78,435.3,288.93,435.3,288.93z"/>
				<path id="XMLID_65_" class="st37" d="M490.22,263.71c0,0-0.33-14.56,10.87-15.4c11.2-0.84,10.21,12.07,6.9,20.78
					c-3.3,8.7-18.32,11.8-18.32,11.8L490.22,263.71z"/>
				<path id="XMLID_64_" class="st36" d="M380.14,259.89c0,0,0.33-14.56-10.87-15.4c-11.2-0.84-10.21,12.07-6.9,20.78
					c3.3,8.7,18.32,11.8,18.32,11.8L380.14,259.89z"/>
				<path id="XMLID_63_" d="M412.52,262.66c0,3.49-2.34,6.33-5.22,6.33c-2.88,0-5.22-2.83-5.22-6.33s2.34-6.33,5.22-6.33
					C410.18,256.34,412.52,259.17,412.52,262.66z"/>
				<path id="XMLID_62_" class="st8" d="M410.97,259.09c0,1.14-0.76,2.06-1.7,2.06c-0.94,0-1.7-0.92-1.7-2.06
					c0-1.14,0.76-2.06,1.7-2.06C410.21,257.04,410.97,257.96,410.97,259.09z"/>
				<path id="XMLID_61_" d="M470.73,262.64c0,3.49-2.34,6.33-5.22,6.33c-2.88,0-5.22-2.83-5.22-6.33s2.34-6.33,5.22-6.33
					C468.4,256.32,470.73,259.15,470.73,262.64z"/>
				<path id="XMLID_60_" class="st8" d="M469.18,259.07c0,1.14-0.76,2.06-1.7,2.06c-0.94,0-1.7-0.92-1.7-2.06
					c0-1.14,0.76-2.06,1.7-2.06C468.42,257.01,469.18,257.94,469.18,259.07z"/>
				<path id="XMLID_59_" class="st50" d="M407.81,299.77c0,0,17.09,2.15,29.38,1.96c12.29-0.2,27.72-1.96,27.72-1.96
					s0.6,9.79-6.58,18.21c-4.54,5.33-11.46,10.18-21.26,9.79c-9.8-0.39-20.37-6.46-24.55-11.95
					C408.34,310.35,407.81,299.77,407.81,299.77z"/>
				<path id="XMLID_58_" class="st51" d="M435.85,256.32c0,0,0.59,8.26-3.83,19.17c-2.14,5.28-2.63,10.97-0.67,11.75
					c1.96,0.78,6.07,1.36,6.07,1.36s-11.42,2.09-10.77-4.1C427.43,277.07,432.91,272,435.85,256.32z"/>
				<path id="XMLID_55_" class="st52" d="M491.39,246.12c-3.65,0.71-6.08-1.71-13.15-3.76c-7.07-2.06-25.81-2.73-28.93-2.48
					c-3.12,0.24-7.56,2.07-9.7,2.48c-0.94,0.18-2.44,0.43-4.17,0.52c0,3.82,0,7.63,0,11.45c2.32,0.45,3.68,3.76,3.84,4.87
					c0.16,1.14,1.64,13.33,6.9,18.04c5.26,4.72,18.9,3.83,28.76,2.53c9.86-1.3,10.85-10.2,12.16-13.16
					c1.31-2.96,4.27-7.04,4.27-7.04S491.88,254.28,491.39,246.12z M483.03,267.63c-3.02,5.8-6.52,9.32-15.36,9.58
					c-8.83,0.25-16.14-0.82-18.66-3.44c-2.52-2.61-6.05-7.6-7.06-22.27c0,0-1.26-7.06,5.67-8.32c6.93-1.26,29.86,1.01,35.4,4.16
					C488.57,250.49,486.05,261.83,483.03,267.63z"/>
				<path id="XMLID_52_" class="st53" d="M428.44,241.83c-4.11-1.76-16.93-2.18-24-1.86c-7.07,0.33-16.44,2.3-19.95,3.35
					c-3.51,1.05-7.22-0.5-7.22-0.5v13.08c0,0,1.7,0.5,3.4,5.63c1.71,5.13,3.39,10.81,7,14.41c3.62,3.59,12.33,5.28,26.3,3.15
					c13.97-2.14,15.94-16.6,16.44-19.9c0.49-3.3,2.47-5.25,4.88-4.92c0.05,0.01,0.1,0.04,0.15,0.05c0-3.82,0-7.63,0-11.45
					C433.27,242.98,430.73,242.82,428.44,241.83z M427.32,251.03c-1.01,14.66-4.54,19.65-7.06,22.27
					c-2.52,2.61-9.83,3.69-18.66,3.44c-8.83-0.25-12.33-3.78-15.36-9.58c-3.02-5.8-5.54-17.13,0-20.28
					c5.54-3.15,28.47-4.1,35.4-2.84C428.58,245.29,427.32,251.03,427.32,251.03z"/>
				<path id="XMLID_51_" d="M417.26,229.45c-4.5,0.1-15.33,0.89-28.68,5.73c-1.23,0.45-2.59-0.23-2.98-1.48l0,0
					c-0.32-1.02,0.1-2.13,1.03-2.67c3.69-2.16,13.92-7.23,30.39-8.42c1.34-0.1,2.48,0.96,2.48,2.3v2.24
					C419.51,228.4,418.52,229.42,417.26,229.45z"/>
				<path id="XMLID_50_" d="M452.72,229.45c4.5,0.1,15.33,0.89,28.68,5.73c1.23,0.45,2.59-0.23,2.98-1.48l0,0
					c0.32-1.02-0.1-2.13-1.03-2.67c-3.69-2.16-13.92-7.23-30.39-8.42c-1.34-0.1-2.48,0.96-2.48,2.3v2.24
					C450.48,228.4,451.47,229.42,452.72,229.45z"/>
				<path id="XMLID_49_" class="st54" d="M491.04,188.67c0.6,0.6,1.32,0.55,2.1,0.28c-0.97-0.33-1.61-0.45-1.61-0.45
					s11.16-32.36-34.42-30.97c-15.92,0.49-79.5,6.41-88.71,36.6c16.17-11.36,36.03-17.64,55.89-21.3
					C447.66,168.65,473.52,170.31,491.04,188.67z"/>
				<path id="XMLID_48_" d="M493.14,188.95c-0.78,0.27-1.5,0.33-2.1-0.28c-17.52-18.36-43.39-20.02-66.75-15.85
					c-19.86,3.66-39.72,9.94-55.89,21.3c-0.73,2.38-1.12,4.9-1.12,7.59c0,8.28,9.17,73.63,9.17,73.63l3.03-66.27
					c36.68-6.17,73.42-5.58,110.36,4.67l3.35,61.59c0,0,9.49-62.47,9.49-73.63C502.69,193.22,496.23,190,493.14,188.95z"/>
				<path id="XMLID_47_" class="st55" d="M377.27,255.91c-1.04-0.68-5.11-6.16-5.11-6.16v-8.65l5.11,1.72V255.91z"/>
				<path id="XMLID_46_" class="st56" d="M491.39,259.21c1.04-0.68,5.11-6.16,5.11-6.16v-8.65l-5.11,1.72V259.21z"/>
				<path id="XMLID_45_" class="st23" d="M417.37,363.73c0,0.91-11.99,22.13-11.99,22.13l5.99,6.11l-7.94,7.51l12.39,52.26
					c0.49-0.84,1.01-1.68,1.54-2.52L417.37,363.73z"/>
				<path id="XMLID_44_" class="st8" d="M417.37,449.22c-0.53,0.85-1.05,1.68-1.54,2.52l1.54,6.5L417.37,449.22z"/>
				<path id="XMLID_43_" class="st8" d="M454.15,363.73c0,0.91,11.99,22.13,11.99,22.13l-5.99,6.11l7.94,7.51l-13.93,58.76
					L454.15,363.73z"/>
			</g>
			<rect id="XMLID_41_" x="587.27" y="343.33" class="st8" width="64.52" height="94.5"/>
			<g id="XMLID_35_">
				<path id="XMLID_37_" class="st57" d="M636.78,340.52c-1.95-3.42-5.64-5.72-9.86-5.72h-3.7c-0.73,0-1.32-0.59-1.32-1.32
					c0-0.47,0.27-0.89,0.67-1.13c1.69-1,2.7-2.99,2.25-5.16c-0.38-1.82-1.84-3.29-3.65-3.66c-3.1-0.65-5.83,1.7-5.83,4.69
					c0,1.76,0.95,3.3,2.37,4.13c0.4,0.24,0.65,0.67,0.65,1.13c0,0.73-0.58,1.32-1.31,1.32h-3.7c-4.22,0-7.91,2.3-9.86,5.72
					c-0.95,1.66-1.49,3.58-1.49,5.63h36.29C638.27,344.1,637.73,342.18,636.78,340.52z M618.09,328.15c0-1.13,0.91-2.04,2.04-2.04
					c1.13,0,2.04,0.92,2.04,2.04c0,1.13-0.91,2.04-2.04,2.04C619,330.18,618.09,329.27,618.09,328.15z"/>
				<path id="XMLID_36_" class="st28" d="M638.27,346.15h-36.29c0-2.05,0.54-3.97,1.49-5.63h33.31
					C637.73,342.18,638.27,344.1,638.27,346.15z"/>
			</g>
			<path id="XMLID_34_" class="st37" d="M587.23,393.41c-0.38,0.08-0.6,0.13-0.6,0.13s3.54-4.8,5.18-6.28
				c1.64-1.47,0.77-5.25,0.77-5.25s-9.7,8.27-14.36,10.06c-4.67,1.79-10.55,9.16-10.55,9.16l0.14,6.72
				C578.19,409.28,582.02,400.55,587.23,393.41z"/>
			<polygon id="XMLID_33_" class="st10" points="600.64,359.15 600.64,355.81 597.31,355.81 597.31,359.15 593.97,359.15 
				593.97,362.49 597.31,362.49 597.31,365.83 600.64,365.83 600.64,362.49 603.98,362.49 603.98,359.15 			"/>
			<line id="XMLID_32_" class="st58" x1="616.47" y1="355.81" x2="644.56" y2="355.81"/>
			<line id="XMLID_31_" class="st58" x1="593.97" y1="373.34" x2="644.56" y2="373.34"/>
			<line id="XMLID_30_" class="st58" x1="593.97" y1="378.06" x2="644.56" y2="378.06"/>
			<line id="XMLID_29_" class="st58" x1="593.97" y1="382.79" x2="644.56" y2="382.79"/>
			<line id="XMLID_28_" class="st58" x1="593.97" y1="387.52" x2="644.56" y2="387.52"/>
			<line id="XMLID_27_" class="st58" x1="593.97" y1="392.25" x2="644.56" y2="392.25"/>
			<line id="XMLID_26_" class="st58" x1="593.97" y1="396.98" x2="644.56" y2="396.98"/>
			<line id="XMLID_25_" class="st58" x1="630.52" y1="415.58" x2="644.56" y2="415.58"/>
			<line id="XMLID_24_" class="st58" x1="616.47" y1="360.82" x2="644.56" y2="360.82"/>
			<line id="XMLID_23_" class="st58" x1="616.47" y1="365.83" x2="644.56" y2="365.83"/>
		</g>
		<g id="XMLID_11_">
			<g id="XMLID_20_">
				<path id="XMLID_21_" class="st28" d="M394.38,465.59l-2.03-0.34c-7.58-1.28-13.58-7.95-15.3-17.01
					c-1.93-10.17-3.72-24.83-1.32-36.86l3.16,0.63c-2.3,11.52-0.55,25.73,1.33,35.63c1.44,7.6,6.53,13.4,12.66,14.43l2.03,0.34
					L394.38,465.59z"/>
			</g>
			<g id="XMLID_18_">
				<path id="XMLID_19_" class="st47" d="M422.94,414.11c-1.13,0-2.14-0.8-2.37-1.95c-2.53-12.66-9.21-18.81-20.45-18.81
					c-11.23,0-17.92,6.15-20.45,18.81c-0.26,1.31-1.54,2.16-2.85,1.9c-1.31-0.26-2.16-1.54-1.9-2.85
					c2.96-14.85,11.67-22.7,25.19-22.7s22.23,7.85,25.19,22.7c0.26,1.31-0.59,2.58-1.9,2.85
					C423.26,414.1,423.1,414.11,422.94,414.11z"/>
			</g>
			<g id="XMLID_16_">
				<path id="XMLID_17_" class="st28" d="M405.88,465.59l-0.53-3.18l2.03-0.34c6.13-1.03,11.22-6.83,12.66-14.43
					c1.87-9.89,3.63-24.11,1.33-35.63l3.16-0.63c2.4,12.03,0.61,26.68-1.32,36.86c-1.72,9.06-7.72,15.74-15.3,17.01L405.88,465.59z"
					/>
			</g>
			<g id="XMLID_14_">
				<path id="XMLID_15_" class="st47" d="M396.31,466.8l-4.18-0.72c-0.88-0.15-1.48-0.99-1.33-1.88l0.29-1.68
					c0.15-0.88,0.99-1.48,1.88-1.33l4.18,0.72c0.88,0.15,1.48,0.99,1.33,1.88l-0.29,1.68C398.04,466.35,397.2,466.95,396.31,466.8z"
					/>
			</g>
			<g id="XMLID_12_">
				<path id="XMLID_13_" class="st47" d="M403.94,466.8l4.18-0.72c0.88-0.15,1.48-0.99,1.33-1.88l-0.29-1.68
					c-0.15-0.88-0.99-1.48-1.88-1.33l-4.18,0.72c-0.88,0.15-1.48,0.99-1.33,1.88l0.29,1.68
					C402.22,466.35,403.06,466.95,403.94,466.8z"/>
			</g>
		</g>
		<g id="XMLID_8_">
			<path id="XMLID_10_" class="st47" d="M425.51,354.89c-0.1,0.33-0.2,0.64-0.32,0.93c-5.06,0.12-6.08,1.61-6.27,2.44v0.02
				l-0.9,3.66c-3.74,1.56-6.85,3.75-9.28,6.57c-7.95,9.17-6.24,21.97-6.22,22.1c0.19,1.32-0.73,2.55-2.06,2.73
				c-0.11,0.02-0.23,0.02-0.35,0.02c-1.19,0-2.22-0.87-2.39-2.08c-0.09-0.61-2.03-15.13,7.36-25.95
				C409.91,359.77,416.75,356.28,425.51,354.89z"/>
		</g>
		<g id="XMLID_5_">
			<path id="XMLID_7_" class="st47" d="M471.88,391.27c-0.17,1.21-1.21,2.08-2.4,2.08c-0.11,0-0.23-0.01-0.34-0.02
				c-1.32-0.19-2.24-1.41-2.06-2.73c0.02-0.2,1.67-13.03-6.25-22.13c-1.96-2.25-4.35-4.1-7.15-5.54l-1.08-4.12
				c-0.31-1.16-1.19-1.98-2.48-2.52c5.94,1.81,10.75,4.84,14.4,9.05C473.91,376.14,471.97,390.66,471.88,391.27z"/>
			<polygon id="XMLID_6_" class="st47" points="471.88,391.27 469.59,414.95 464.41,414.95 467.09,390.6 			"/>
		</g>
		<g id="XMLID_2_">
			<circle id="XMLID_4_" class="st28" cx="466.61" cy="417.43" r="8.75"/>
			<circle id="XMLID_3_" class="st26" cx="466.61" cy="417.43" r="4.4"/>
		</g>
	</g>
</g>
</svg>
